<svg width="219" height="212" viewBox="0 0 219 212" fill="none" xmlns="http://www.w3.org/2000/svg">
<path d="M124.171 163.117H89.5105V190.241H124.171V163.117Z" fill="#35C535"/>
<path d="M140.521 137.867H79.4172V155.772H140.521V137.867Z" fill="#35C535"/>
<path d="M140.521 119.961H79.4172V137.866H140.521V119.961Z" fill="#228B22"/>
<path d="M140.521 102.057H79.4172V119.961H140.521V102.057Z" fill="#228B22"/>
<path d="M140.521 84.1543H79.4172V102.059H140.521V84.1543Z" fill="#228B22"/>
<path d="M85.013 66.248H134.922C136.407 66.248 137.83 66.8378 138.88 67.8876C139.93 68.9374 140.52 70.3612 140.52 71.8458V84.1535H79.4172V71.8458C79.4172 70.3615 80.0067 68.938 81.0561 67.8883C82.1054 66.8386 83.5287 66.2486 85.013 66.248Z" fill="#228B22"/>
<path d="M134.924 66.248H85.0131C83.5285 66.2482 82.1048 66.838 81.055 67.8878C80.0053 68.9375 79.4155 70.3612 79.4153 71.8458V102.058H140.52V71.8458C140.52 70.3616 139.93 68.9382 138.881 67.8885C137.831 66.8388 136.408 66.2488 134.924 66.248Z" fill="#228B22"/>
<path d="M103.07 119.962V107.655C103.066 104.586 101.846 101.643 99.6752 99.4728C97.5049 97.3025 94.5623 96.0816 91.493 96.0781H79.4172V155.772H103.068V119.964L103.07 119.962Z" fill="#35C535"/>
<path d="M35.9844 173.678H97.0908V191.583H47.5353C46.0185 191.583 44.5165 191.284 43.1151 190.704C41.7137 190.124 40.4403 189.273 39.3677 188.201C38.2951 187.128 37.4442 185.855 36.8637 184.454C36.2832 183.052 35.9844 181.55 35.9844 180.034V173.678Z" fill="#228B22"/>
<path d="M97.0901 155.771H35.9863V173.676H97.0901V155.771Z" fill="#51D451"/>
<path d="M97.0901 137.867H35.9863V155.772H97.0901V137.867Z" fill="#51D451"/>
<path d="M97.0901 119.961H35.9863V137.866H97.0901V119.961Z" fill="#51D451"/>
<path d="M41.5841 102.057H91.4931C92.9777 102.057 94.4015 102.646 95.4513 103.696C96.5011 104.746 97.0908 106.17 97.0908 107.654V119.962H35.9844V107.654C35.9844 106.919 36.1292 106.191 36.4107 105.512C36.6921 104.832 37.1046 104.215 37.6246 103.695C38.1446 103.176 38.762 102.763 39.4414 102.482C40.1207 102.201 40.8489 102.056 41.5841 102.057Z" fill="#51D451"/>
<path d="M97.0901 170.162H35.9863V177.19H97.0901V170.162Z" fill="#228B22"/>
<path d="M79.6318 164.094C79.6325 167.605 80.8823 171.002 83.1575 173.676H97.0908V155.771H82.1843C80.518 158.227 79.6286 161.126 79.6318 164.094Z" fill="#228B22"/>
<path d="M171.936 149.439H166.059C164.045 149.445 162.061 148.963 160.275 148.034C156.869 146.245 150.188 143.383 142.303 143.383C142.303 143.383 127.827 141.934 115.349 150.179C110.953 153.048 105.812 154.563 100.562 154.536H94.5067C93.2512 154.536 92.0081 154.783 90.8481 155.264C89.6882 155.744 88.6343 156.448 87.7466 157.336C86.8589 158.224 86.1547 159.278 85.6743 160.438C85.1939 161.597 84.9467 162.841 84.9468 164.096C84.9468 166.631 85.9539 169.063 87.7466 170.856C89.5393 172.648 91.9707 173.655 94.506 173.655H112.35C109.778 176.083 106.958 178.234 103.937 180.073C95.1207 185.466 84.539 187.182 74.47 184.852C67.2054 183.2 56.6656 180.521 47.4717 177.09C44.7295 176.079 41.7225 176.043 38.957 176.989C36.1915 177.935 33.8363 179.805 32.2881 182.284C31.9121 182.88 31.6595 183.546 31.5453 184.241C31.431 184.937 31.4575 185.648 31.623 186.333C31.7885 187.019 32.0897 187.664 32.5088 188.23C32.928 188.797 33.4565 189.274 34.0632 189.633C49.9865 198.913 67.4488 205.253 85.6164 208.351C90.2298 209.134 94.9204 209.359 99.5876 209.023C110.156 208.284 130.502 205.834 149.285 197.709C152.853 196.149 156.703 195.337 160.598 195.323H171.936V149.439Z" fill="url(#paint0_linear_2815_6983)"/>
<path d="M21.4159 25.8633L25.6943 37.6773C27.1783 41.7744 30.0706 45.2104 33.8545 47.3715L39.5107 50.6008L33.8545 53.8309C30.0705 55.9915 27.1781 59.4274 25.6943 63.5243L21.4159 75.3391L17.2226 63.7582C15.6877 59.5196 12.6469 55.9938 8.67976 53.8528L2.65747 50.6008L8.67976 47.3489C12.6466 45.2077 15.6872 41.682 17.2219 37.4435L21.4159 25.8633Z" fill="#35C535"/>
<path d="M194.352 81.791L197.586 90.7205C198.708 93.817 200.894 96.414 203.754 98.0475L208.029 100.488L203.754 102.93C200.894 104.563 198.708 107.16 197.586 110.257L194.352 119.188L191.182 110.434C190.022 107.231 187.723 104.566 184.725 102.946L180.173 100.488L184.725 98.0303C187.723 96.4111 190.022 93.7461 191.182 90.5424L194.352 81.791Z" fill="#228B22"/>
<path d="M134.924 66.248H116.104C122.198 78.6872 132.027 86.3212 140.519 90.884V71.8458C140.519 70.3617 139.929 68.9384 138.88 67.8887C137.831 66.8391 136.408 66.2489 134.924 66.248Z" fill="#35C535"/>
<path d="M216.264 141.471H171.936V209.342H216.264V141.471Z" fill="#35C535"/>
<path d="M156.967 2.6543C145.768 13.2871 119.943 8.45868 119.943 8.45868V46.1344C119.914 50.5933 120.727 55.0176 122.339 59.1748C131.64 82.6846 156.967 87.3955 156.967 87.3955C156.967 87.3955 182.292 82.6846 191.595 59.1748C193.207 55.0176 194.02 50.5933 193.991 46.1344V8.45868C193.991 8.45868 168.166 13.2871 156.967 2.6543Z" fill="#51D451"/>
<path d="M156.967 2.6543C155.159 4.32382 153.066 5.65585 150.788 6.58722L119.943 37.4354V46.1344C119.932 49.5052 120.389 52.8612 121.301 56.1062L168.997 8.40885C164.43 7.41234 160.119 5.64717 156.967 2.6543Z" fill="#279C27"/>
<path d="M125.63 65.7702C126.962 67.9458 128.485 69.9984 130.181 71.9034L190.424 11.8679V8.97266C188.431 9.20916 185.739 9.45231 182.696 9.52805L125.63 65.7702Z" fill="#279C27"/>
<path d="M191.594 59.1748C193.207 55.0176 194.02 50.5933 193.991 46.1344V8.45868C193.991 8.45868 168.166 13.2871 156.967 2.6543V87.3955C156.967 87.3955 182.292 82.6826 191.594 59.1748Z" fill="#228B22"/>
<path d="M119.943 28.6499L139.328 9.26562C137.8 9.41245 136.284 9.49549 134.81 9.53136L119.943 24.3987V28.6499Z" fill="#279C27"/>
<path d="M124.185 86.81C124.89 86.81 125.566 86.5301 126.064 86.0317C126.563 85.5334 126.843 84.8574 126.843 84.1527C126.843 83.4479 126.563 82.772 126.064 82.2736C125.566 81.7752 124.89 81.4953 124.185 81.4953H82.0746V71.845C82.0754 71.0654 82.3855 70.318 82.9368 69.7668C83.488 69.2156 84.2354 68.9055 85.0149 68.9046H110.989C111.694 68.9046 112.37 68.6246 112.868 68.1263C113.366 67.6279 113.646 66.952 113.646 66.2472C113.646 65.5424 113.366 64.8665 112.868 64.3682C112.37 63.8698 111.694 63.5898 110.989 63.5898H85.013C82.8243 63.5923 80.726 64.4628 79.1784 66.0104C77.6308 67.558 76.7603 69.6563 76.7578 71.845V99.4H41.5841C39.3952 99.4021 37.2966 100.272 35.7486 101.82C34.2007 103.367 33.3297 105.466 33.3269 107.655V166.046C33.3269 166.751 33.6069 167.427 34.1052 167.925C34.6036 168.423 35.2795 168.703 35.9843 168.703C36.6891 168.703 37.365 168.423 37.8633 167.925C38.3617 167.427 38.6417 166.751 38.6417 166.046V158.43H74.9289C75.6336 158.43 76.3096 158.15 76.8079 157.651C77.3063 157.153 77.5862 156.477 77.5862 155.772C77.5862 155.068 77.3063 154.392 76.8079 153.893C76.3096 153.395 75.6336 153.115 74.9289 153.115H38.6417V140.525H94.4334V144.827C94.4334 145.531 94.7133 146.207 95.2117 146.706C95.7101 147.204 96.386 147.484 97.0908 147.484C97.7955 147.484 98.4714 147.204 98.9698 146.706C99.4682 146.207 99.7481 145.531 99.7481 144.827V107.655C99.7455 105.466 98.8749 103.368 97.3273 101.82C95.7797 100.273 93.6815 99.4025 91.493 99.4H82.0746V86.81H124.185ZM94.4334 107.655V135.21H38.6417V122.62H85.943C86.6478 122.62 87.3237 122.34 87.8221 121.841C88.3204 121.343 88.6004 120.667 88.6004 119.962C88.6004 119.257 88.3204 118.581 87.8221 118.083C87.3237 117.585 86.6478 117.305 85.943 117.305H38.6417V107.655C38.6427 106.875 38.9529 106.128 39.5041 105.577C40.0553 105.026 40.8026 104.716 41.5821 104.715H91.491C92.2708 104.715 93.0186 105.025 93.5702 105.576C94.1219 106.127 94.4323 106.875 94.4334 107.655Z" fill="#134413"/>
<path d="M218.923 141.471C218.923 140.766 218.643 140.09 218.144 139.592C217.646 139.093 216.97 138.813 216.265 138.813H171.936C171.231 138.813 170.555 139.093 170.057 139.592C169.559 140.09 169.279 140.766 169.279 141.471V146.78H166.059C164.476 146.785 162.916 146.407 161.511 145.679C155.844 142.69 149.581 141.004 143.179 140.745V94.6066C143.179 93.9018 142.899 93.2259 142.401 92.7275C141.903 92.2292 141.227 91.9492 140.522 91.9492C139.817 91.9492 139.141 92.2292 138.643 92.7275C138.145 93.2259 137.865 93.9018 137.865 94.6066V99.4005H107.977C107.272 99.4005 106.596 99.6805 106.098 100.179C105.6 100.677 105.32 101.353 105.32 102.058C105.32 102.763 105.6 103.439 106.098 103.937C106.596 104.435 107.272 104.715 107.977 104.715H137.865V117.305H107.977C107.272 117.305 106.596 117.585 106.098 118.084C105.6 118.582 105.32 119.258 105.32 119.963C105.32 120.667 105.6 121.343 106.098 121.842C106.596 122.34 107.272 122.62 107.977 122.62H137.865V135.211H107.977C107.272 135.211 106.596 135.491 106.098 135.989C105.6 136.487 105.32 137.163 105.32 137.868C105.32 138.573 105.6 139.249 106.098 139.747C106.596 140.246 107.272 140.525 107.977 140.525H137.865V140.658C132.296 140.858 122.683 142.151 113.882 147.966C109.923 150.553 105.289 151.917 100.56 151.886H94.5067C91.2667 151.886 88.1593 153.173 85.8682 155.464C83.5772 157.755 82.2901 160.862 82.2901 164.102C82.2901 167.342 83.5772 170.45 85.8682 172.741C88.1593 175.032 91.2667 176.319 94.5067 176.319H104.831C104.122 176.809 103.358 177.316 102.54 177.819C94.3259 182.87 84.4479 184.469 75.06 182.266C67.9077 180.641 57.4774 177.992 48.4005 174.606C45.0844 173.391 41.4518 173.351 38.1096 174.492C34.7674 175.634 31.9182 177.888 30.038 180.877C29.4736 181.773 29.0945 182.773 28.923 183.818C28.7515 184.863 28.7911 185.932 29.0395 186.961C29.2879 187.991 29.74 188.96 30.3692 189.812C30.9984 190.663 31.7918 191.38 32.7027 191.921C48.9006 201.377 66.6735 207.83 85.1654 210.967C88.5342 211.543 91.946 211.832 95.3637 211.831C96.8253 211.831 98.2941 211.779 99.7703 211.676C110.427 210.931 131.167 208.441 150.336 200.15C153.571 198.731 157.063 197.993 160.596 197.982H169.279V209.342C169.279 210.047 169.559 210.723 170.057 211.221C170.555 211.72 171.231 212 171.936 212H216.265C216.97 212 217.646 211.72 218.144 211.221C218.643 210.723 218.923 210.047 218.923 209.342C218.923 208.638 218.643 207.962 218.144 207.463C217.646 206.965 216.97 206.685 216.265 206.685H174.594V144.128H216.265C216.97 144.128 217.646 143.848 218.144 143.35C218.643 142.852 218.923 142.176 218.923 141.471ZM160.593 192.664C156.335 192.674 152.125 193.561 148.224 195.27C129.779 203.247 109.715 205.649 99.395 206.371C94.9402 206.692 90.4632 206.477 86.0596 205.732C68.2124 202.704 51.0592 196.477 35.4265 187.35C35.1237 187.173 34.8598 186.936 34.6503 186.654C34.4409 186.373 34.2903 186.052 34.2076 185.711C34.1248 185.37 34.1116 185.016 34.1686 184.67C34.2256 184.324 34.3518 183.992 34.5396 183.696C35.4508 182.248 36.7137 181.054 38.2107 180.226C39.7077 179.397 41.3901 178.961 43.101 178.959C44.2762 178.958 45.442 179.168 46.543 179.579C55.895 183.067 66.5717 185.78 73.8815 187.442C84.6291 189.957 95.9354 188.12 105.334 182.332C108.198 180.571 110.898 178.556 113.402 176.312H128.315C129.019 176.312 129.695 176.032 130.194 175.533C130.692 175.035 130.972 174.359 130.972 173.654C130.972 172.95 130.692 172.274 130.194 171.775C129.695 171.277 129.019 170.997 128.315 170.997H94.5067C93.6004 170.997 92.7029 170.818 91.8655 170.472C91.0281 170.125 90.2672 169.616 89.6263 168.975C88.9854 168.335 88.4771 167.574 88.1302 166.736C87.7834 165.899 87.6048 165.001 87.6048 164.095C87.6048 163.189 87.7834 162.291 88.1302 161.454C88.4771 160.617 88.9854 159.856 89.6263 159.215C90.2672 158.574 91.0281 158.065 91.8655 157.719C92.7029 157.372 93.6004 157.193 94.5067 157.193H100.559C106.33 157.226 111.982 155.557 116.81 152.396C128.309 144.799 141.902 146.014 142.035 146.028C142.123 146.036 142.211 146.04 142.3 146.04C149.662 146.04 155.947 148.764 159.037 150.384C161.204 151.513 163.613 152.1 166.056 152.095H169.276V192.664H160.593Z" fill="#306130"/>
<path d="M21.4166 77.9973C21.9626 77.9971 22.4953 77.8288 22.9422 77.5153C23.3891 77.2017 23.7286 76.7581 23.9145 76.2447L28.1929 64.43C29.4632 60.9264 31.9368 57.988 35.1725 56.139L40.8281 52.9096C41.235 52.6772 41.5733 52.3414 41.8085 51.9361C42.0438 51.5309 42.1677 51.0706 42.1677 50.602C42.1677 50.1334 42.0438 49.6732 41.8085 49.2679C41.5733 48.8626 41.235 48.5268 40.8281 48.2944L35.1725 45.0644C31.9376 43.216 29.4641 40.2789 28.1929 36.7767L23.9145 24.9626C23.7285 24.4494 23.3889 24.0059 22.9419 23.6925C22.4949 23.3791 21.9622 23.2109 21.4163 23.2109C20.8704 23.2109 20.3377 23.3791 19.8907 23.6925C19.4437 24.0059 19.1041 24.4494 18.918 24.9626L14.7253 36.5388C13.4142 40.1664 10.8126 43.1838 7.41753 45.0145L1.39458 48.2639C0.972881 48.4916 0.620626 48.8292 0.375121 49.2408C0.129616 49.6524 0 50.1227 0 50.602C0 51.0813 0.129616 51.5516 0.375121 51.9632C0.620626 52.3749 0.972881 52.7124 1.39458 52.9402L7.41753 56.1915C10.8121 58.0213 13.4137 61.0375 14.7253 64.6639L18.9193 76.2447C19.1052 76.758 19.4446 77.2015 19.8914 77.5151C20.3382 77.8287 20.8708 77.997 21.4166 77.9973ZM9.94204 51.5152L8.25129 50.6017L9.94204 49.6882C14.4845 47.2387 17.9657 43.2022 19.7212 38.3492L21.4166 33.6688L23.1957 38.585C24.8965 43.2733 28.207 47.2051 32.5371 49.6796L34.1521 50.601L32.5371 51.5251C28.2067 53.9992 24.8961 57.9312 23.1957 62.6197L21.4166 67.5358L19.7212 62.8549C17.9659 58.0016 14.4846 53.9648 9.94204 51.5152Z" fill="url(#paint1_linear_2815_6983)"/>
<path d="M194.352 79.1348C193.806 79.1349 193.273 79.3032 192.826 79.6168C192.379 79.9303 192.039 80.374 191.854 80.8873L188.683 89.6407C187.746 92.2318 185.888 94.3871 183.463 95.6949L178.909 98.153C178.488 98.3807 178.136 98.7183 177.89 99.1299C177.645 99.5415 177.515 100.012 177.515 100.491C177.515 100.97 177.645 101.441 177.89 101.852C178.136 102.264 178.488 102.602 178.909 102.829L183.463 105.287C185.888 106.595 187.746 108.75 188.683 111.342L191.854 120.095C192.04 120.608 192.379 121.052 192.826 121.365C193.273 121.678 193.806 121.847 194.352 121.847C194.898 121.847 195.43 121.678 195.877 121.365C196.324 121.052 196.664 120.608 196.85 120.095L200.083 111.165C200.992 108.661 202.759 106.562 205.071 105.24L209.346 102.8C209.754 102.568 210.092 102.232 210.327 101.827C210.563 101.421 210.687 100.961 210.687 100.492C210.687 100.023 210.563 99.5631 210.327 99.1577C210.092 98.7524 209.754 98.4165 209.346 98.1842L205.071 95.7427C202.76 94.4215 200.992 92.3224 200.083 89.8194L196.85 80.8893C196.664 80.3755 196.325 79.9313 195.878 79.6174C195.431 79.3034 194.898 79.1349 194.352 79.1348ZM202.436 100.358L202.67 100.491L202.436 100.624C199.029 102.571 196.425 105.665 195.087 109.354L194.352 111.384L193.681 109.531C192.299 105.713 189.561 102.537 185.987 100.61L185.766 100.491L185.987 100.371C189.561 98.4434 192.299 95.268 193.681 91.4504L194.352 89.5962L195.087 91.6271C196.425 95.3162 199.029 98.4104 202.436 100.358Z" fill="#306130"/>
<path d="M193.501 5.84624C193.255 5.89141 168.893 10.314 158.795 0.726793C158.745 0.680289 158.689 0.647072 158.637 0.605219C158.568 0.546059 158.497 0.490404 158.423 0.438468C158.349 0.392089 158.272 0.349516 158.194 0.310914C158.118 0.270389 158.043 0.229199 157.963 0.196646C157.884 0.164094 157.797 0.140177 157.714 0.115596C157.63 0.0910151 157.554 0.0670991 157.473 0.0491618C157.388 0.0344654 157.302 0.0240442 157.216 0.0179376C157.132 0.00996546 157.049 0 156.965 0C156.881 0 156.798 0.00996546 156.714 0.0179376C156.628 0.0240443 156.542 0.0344654 156.457 0.0491618C156.376 0.0651061 156.297 0.0896865 156.217 0.115596C156.132 0.138315 156.048 0.165592 155.966 0.19731C155.887 0.229199 155.813 0.270388 155.737 0.310249C155.658 0.34904 155.581 0.392063 155.507 0.439132C155.433 0.49041 155.362 0.545631 155.293 0.604554C155.242 0.647072 155.185 0.679625 155.135 0.726793C145.058 10.2934 120.674 5.89075 120.429 5.84557C120.045 5.77395 119.65 5.78773 119.272 5.88594C118.895 5.98416 118.543 6.16439 118.243 6.41383C117.943 6.66327 117.701 6.97578 117.535 7.32916C117.369 7.68254 117.284 8.06811 117.284 8.45844V46.1341C117.251 50.9279 118.127 55.6845 119.867 60.1518C129.597 84.7459 155.386 89.8049 156.479 90.0081H156.483C156.641 90.0379 156.801 90.0531 156.962 90.0533H156.968C157.127 90.0529 157.287 90.038 157.444 90.0088H157.451C158.544 89.8055 184.333 84.7465 194.064 60.1525C195.803 55.6851 196.679 50.9286 196.646 46.1348V8.45844C196.646 8.06809 196.56 7.68254 196.394 7.32918C196.229 6.97583 195.987 6.66336 195.687 6.41398C195.386 6.1646 195.035 5.98445 194.657 5.88632C194.279 5.7882 193.884 5.77451 193.501 5.84624ZM191.332 46.1341C191.364 50.2585 190.614 54.3516 189.121 58.1966C181.171 78.2911 160.378 83.8835 156.967 84.6754C153.554 83.8835 132.762 78.2911 124.813 58.1966C123.32 54.3517 122.57 50.2585 122.602 46.1341V11.5457C129.672 12.4458 146.857 13.6596 156.969 6.1153C167.081 13.6596 184.266 12.4465 191.336 11.5457L191.332 46.1341Z" fill="#2E862E"/>
<path d="M187.283 158.428C188.75 158.428 189.94 157.238 189.94 155.771C189.94 154.303 188.75 153.113 187.283 153.113C185.815 153.113 184.625 154.303 184.625 155.771C184.625 157.238 185.815 158.428 187.283 158.428Z" fill="#306130"/>
<path d="M200.208 158.428C201.676 158.428 202.865 157.238 202.865 155.771C202.865 154.303 201.676 153.113 200.208 153.113C198.74 153.113 197.551 154.303 197.551 155.771C197.551 157.238 198.74 158.428 200.208 158.428Z" fill="#306130"/>
<defs>
<linearGradient id="paint0_linear_2815_6983" x1="152.5" y1="150" x2="43" y2="194.5" gradientUnits="userSpaceOnUse">
<stop stop-color="#228B22"/>
<stop offset="1"/>
</linearGradient>
<linearGradient id="paint1_linear_2815_6983" x1="21.0838" y1="23.2109" x2="21.0838" y2="77.9973" gradientUnits="userSpaceOnUse">
<stop stop-color="#35C535"/>
<stop offset="1" stop-color="#195F19"/>
</linearGradient>
</defs>
</svg>
