<svg width="210" height="188" viewBox="0 0 210 188" fill="none" xmlns="http://www.w3.org/2000/svg">
<path fill-rule="evenodd" clip-rule="evenodd" d="M110.348 78.8783H98.9044C97.2696 78.8783 95.6348 77.6522 95.6348 76.0174V71.9304C92.774 71.113 90.3218 70.2956 87.8696 68.6609L85.0088 71.5217C84.6001 72.3391 83.7827 72.3391 82.9653 72.3391C82.1479 72.3391 81.3305 72.3391 80.9218 71.5217L72.7479 63.3478C71.5218 62.1217 71.5218 60.487 72.7479 59.2609L75.6088 56.4C73.974 53.9478 72.7479 51.087 71.9305 48.6348H68.2522C66.6174 48.6348 64.9827 47 64.9827 45.3652V33.9217C64.9827 32.287 66.6174 30.6522 68.2522 30.6522H71.9305C72.7479 27.7913 73.974 25.3391 75.2001 22.4783L72.3392 19.6174C71.1131 18.3913 71.1131 16.7565 72.3392 15.5304L80.5131 7.35652C81.3305 6.94783 82.1479 6.53913 82.5566 6.53913C83.374 6.53913 84.1914 6.94783 84.6001 7.35652L87.4609 10.2174C89.9131 8.58261 92.3653 7.35652 95.6348 6.53913V3.26957C95.6348 1.63478 96.8609 0 98.4957 0H111.165C112.8 0 114.026 1.63478 114.026 3.26957V7.35652C116.887 8.17391 119.748 8.9913 122.2 10.6261L125.061 8.17391C125.47 7.35652 126.287 6.94783 127.104 6.94783C127.922 6.94783 128.33 7.35652 129.148 8.17391L137.322 16.3478C138.139 17.1652 138.139 19.2087 137.322 20.4348L134.052 23.2957C135.687 25.7478 136.913 28.6087 137.322 31.4696H141.409C143.044 31.4696 144.27 32.6957 144.27 34.7391V45.7739C144.27 47.4087 143.044 48.6348 141.409 48.6348H137.322C136.504 51.4957 135.278 53.9478 134.052 56.8087L136.504 59.2609C137.73 60.487 137.73 62.5304 136.504 63.7565L128.33 71.9304C127.922 72.3391 127.104 72.7478 126.287 72.7478C125.47 72.7478 125.061 72.3391 124.244 71.9304L121.383 69.0696C118.93 70.2956 116.07 71.5217 113.209 72.3391V76.0174C113.209 77.6522 111.983 78.8783 110.348 78.8783ZM104.626 62.1217C92.3653 62.1217 82.1479 51.9043 82.1479 39.6435C82.1479 26.9739 92.3653 17.1652 104.626 17.1652C117.296 17.1652 127.104 27.3826 127.104 39.6435C127.104 51.9043 117.296 62.1217 104.626 62.1217ZM104.626 22.887C95.6348 22.887 87.8696 30.6522 87.8696 39.6435C87.8696 48.6348 95.6348 56.4 104.626 56.4C113.617 56.4 121.383 48.6348 121.383 39.6435C121.383 30.6522 113.617 22.887 104.626 22.887Z" fill="url(#paint0_linear_2811_6895)"/>
<path fill-rule="evenodd" clip-rule="evenodd" d="M49.0435 65.3919C47.4087 65.3919 46.1826 64.1658 46.1826 62.531V40.0528C46.1826 38.418 47.4087 36.7832 49.0435 36.7832H68.2522C69.887 36.7832 71.1131 38.418 71.1131 40.0528C71.1131 41.6876 69.887 42.9136 68.2522 42.9136H52.3131V62.531C51.9044 64.1658 50.6783 65.3919 49.0435 65.3919Z" fill="url(#paint1_linear_2811_6895)"/>
<path fill-rule="evenodd" clip-rule="evenodd" d="M160.209 65.3919C158.574 65.3919 157.348 64.1658 157.348 62.531V42.9136H141.409C139.774 42.9136 138.139 41.6876 138.139 39.6441C138.139 38.0093 139.774 36.7832 141.409 36.7832H160.209C161.844 36.7832 163.478 38.0093 163.478 39.6441V62.531C163.07 64.1658 161.844 65.3919 160.209 65.3919Z" fill="url(#paint2_linear_2811_6895)"/>
<path fill-rule="evenodd" clip-rule="evenodd" d="M98.4956 188.002H62.5304L58.8522 155.306L60.8957 153.263L73.9739 142.637C73.9739 142.228 73.9739 142.228 74.3826 142.228C83.7826 143.863 100.13 148.767 100.948 165.115V185.141C100.948 186.776 99.7217 188.002 98.4956 188.002ZM57.2174 188.002H42.5043L47 159.802L48.6348 161.437C49.4522 161.845 49.8609 162.254 50.6783 162.254C51.087 162.254 51.9043 161.845 52.7217 161.437L53.9478 160.211L57.2174 188.002ZM37.1913 188.002H2.86087C1.22609 188.002 0 186.776 0 185.141V164.706C1.22609 148.767 17.5739 143.863 26.9739 142.228C26.9739 142.228 26.9739 142.637 27.3826 142.637L40.4609 153.263C40.8696 153.671 40.8696 153.671 40.8696 153.671L42.5043 154.898L37.1913 188.002ZM32.6957 140.184L36.7826 134.871C37.1913 134.463 38.0087 134.054 38.4174 134.054C39.2348 133.645 40.0522 134.054 40.4609 134.463L50.2696 142.637L60.487 134.463C60.8957 134.054 61.713 134.054 62.1217 134.054C62.9391 134.054 63.7565 134.463 64.1652 134.871L68.2522 140.184L58.8522 148.358L52.7217 144.271C51.9043 143.045 50.2696 143.045 49.4522 143.863L42.5043 147.95L32.6957 140.184ZM54.7652 152.037L50.6783 149.176L46.5913 151.628L50.6783 156.124L53.9478 152.854C53.9478 152.445 54.3565 152.445 54.7652 152.037Z" fill="url(#paint3_linear_2811_6895)"/>
<path fill-rule="evenodd" clip-rule="evenodd" d="M51.0869 136.506C50.6782 136.506 50.2695 136.506 50.2695 136.506C43.7303 136.506 38.0086 134.462 33.9217 130.784C31.0608 127.923 29.426 124.245 29.426 120.158H27.7912C24.113 120.158 22.4782 115.254 22.4782 110.758C22.4782 108.714 22.8869 107.08 23.2956 105.445C22.8869 103.401 21.6608 96.4536 22.8869 90.7319C27.7912 62.1232 73.1564 62.1232 78.4695 91.1406C79.6956 97.271 78.0608 105.036 78.0608 106.262C78.0608 107.488 78.4695 109.123 78.4695 110.758C78.4695 116.071 76.426 120.158 73.1564 120.158H71.5217C71.5217 124.245 69.8869 127.514 67.026 130.375C63.3477 134.462 57.2173 136.506 51.0869 136.506ZM28.6086 106.671C28.1999 107.08 28.1999 107.488 27.7912 107.897C27.3825 108.714 27.3825 109.532 27.3825 111.167C27.3825 113.21 27.7912 114.436 28.1999 115.254H31.4695C33.1043 115.254 34.3303 116.48 34.3303 117.706V119.749C34.3303 122.61 35.1477 125.062 37.1912 127.106C40.4608 129.967 45.3651 131.601 50.2695 131.601C55.5825 131.601 60.4869 129.558 63.3477 127.106C65.3912 125.062 66.2086 122.201 66.2086 119.341V117.706C66.2086 116.071 67.4347 114.845 69.0695 114.845H72.339C72.7477 114.436 73.1564 112.801 73.1564 110.758C73.1564 108.714 72.7477 107.08 72.339 106.262H69.0695C67.4347 106.262 66.2086 105.036 66.2086 103.81V100.949C66.2086 98.0884 65.3912 95.6362 64.1651 94.8188C63.7564 94.4101 62.939 94.0014 60.8956 94.4101C57.626 95.6362 46.1825 92.3667 39.6434 90.7319C39.2347 90.3232 38.4173 90.7319 37.5999 91.1406C35.5564 92.3667 34.3303 97.271 34.3303 100.949V103.81C34.3303 105.445 33.1043 106.671 31.4695 106.671H28.6086Z" fill="url(#paint4_linear_2811_6895)"/>
<path fill-rule="evenodd" clip-rule="evenodd" d="M39.2349 139.366C37.6001 139.366 36.374 138.14 36.374 136.505V131.192C36.374 129.558 37.6001 128.74 39.2349 128.74C40.461 128.74 41.6871 129.558 41.6871 131.192V136.505C41.6871 138.14 40.461 139.366 39.2349 139.366Z" fill="url(#paint5_linear_2811_6895)"/>
<path fill-rule="evenodd" clip-rule="evenodd" d="M62.1219 139.366C60.4871 139.366 59.261 138.14 59.261 136.505V131.192C59.261 129.558 60.4871 128.74 62.1219 128.74C63.7566 128.74 64.9827 129.558 64.9827 131.192V136.505C64.574 138.14 63.3479 139.366 62.1219 139.366Z" fill="url(#paint6_linear_2811_6895)"/>
<path fill-rule="evenodd" clip-rule="evenodd" d="M206.8 188.002H170.835L167.156 155.306L169.2 153.263L181.869 142.637C182.278 142.228 182.278 142.228 182.278 142.228C191.678 143.863 208.435 148.767 209.252 165.115V185.141C209.252 186.776 208.026 188.002 206.8 188.002ZM165.113 188.002H150.809L155.304 159.802L156.939 161.437C157.348 161.845 158.165 162.254 158.982 162.254C159.391 162.254 160.209 161.845 161.026 161.437L162.252 160.211L165.113 188.002ZM145.496 188.002H110.756C109.53 188.002 108.304 186.776 108.304 185.141V164.706C109.53 148.767 125.878 143.863 135.278 142.228V142.637L148.765 153.263C148.765 153.671 149.174 153.671 149.174 153.671L150.4 154.898L145.496 188.002ZM141 140.184L145.087 134.871C145.496 134.463 145.904 134.054 146.722 134.054C147.539 133.645 147.948 134.054 148.765 134.463L158.574 142.637L168.382 134.463C169.2 134.054 169.609 134.054 170.426 134.054C171.243 134.054 171.652 134.463 172.469 134.871L176.556 140.184L166.748 148.358L161.026 144.271C160.209 143.454 158.574 143.045 157.348 143.863L150.809 147.95L141 140.184ZM163.069 152.037L158.574 149.176L154.487 151.628L158.982 156.124L161.843 152.854C162.252 152.445 162.661 152.445 163.069 152.037Z" fill="url(#paint7_linear_2811_6895)"/>
<path fill-rule="evenodd" clip-rule="evenodd" d="M158.982 136.506C158.982 136.506 158.574 136.506 158.165 136.506C152.035 136.506 145.904 134.462 142.226 130.784C139.365 127.923 137.73 124.245 137.322 120.158H135.687C132.417 120.158 130.782 115.254 130.782 110.758C130.782 108.714 130.782 107.08 131.6 105.445C130.782 103.401 129.965 96.4536 131.191 90.7319C136.095 62.1232 181.461 62.1232 186.774 91.1406C188 97.271 186.365 105.036 185.956 106.262C186.365 107.488 186.365 109.123 186.365 110.758C186.365 116.071 184.73 120.158 181.461 120.158H179.826C179.826 124.245 178.191 127.514 175.33 130.375C171.652 134.462 165.522 136.506 158.982 136.506ZM136.913 106.671C136.504 107.08 136.095 107.488 136.095 107.897C135.687 108.714 135.687 109.532 135.687 111.167C135.687 113.21 136.095 114.436 136.504 115.254H139.774C141.409 115.254 142.635 116.48 142.635 118.114V119.749C142.635 122.61 143.452 125.062 145.495 127.106C148.765 129.967 153.261 131.601 158.574 131.601C163.887 131.601 168.791 129.558 171.652 127.106C173.695 125.062 174.513 122.61 174.513 119.341V117.706C174.513 116.071 175.739 114.845 177.374 114.845H180.643C181.052 114.436 181.461 112.801 181.461 110.758C181.461 108.714 181.052 107.08 180.643 106.262H177.374C175.739 106.262 174.513 105.036 174.513 103.81V100.949C174.513 98.0884 173.695 95.6362 172.469 94.8188C172.061 94.4101 171.243 94.0014 169.2 94.4101C165.522 95.6362 154.487 92.3667 147.948 90.7319C147.13 90.3232 146.722 90.7319 145.904 91.1406C143.861 92.3667 142.635 97.271 142.635 100.949V103.81C142.635 105.445 141.409 106.671 139.774 106.671H136.913Z" fill="url(#paint8_linear_2811_6895)"/>
<path fill-rule="evenodd" clip-rule="evenodd" d="M147.13 139.366C145.904 139.366 144.678 138.14 144.678 136.505V131.192C144.678 129.558 145.904 128.74 147.13 128.74C148.765 128.74 149.991 129.558 149.991 131.192V136.505C149.991 138.14 148.765 139.366 147.13 139.366Z" fill="url(#paint9_linear_2811_6895)"/>
<path fill-rule="evenodd" clip-rule="evenodd" d="M170.426 139.366C168.791 139.366 167.565 138.14 167.565 136.505V131.192C167.565 129.558 168.791 128.74 170.426 128.74C171.652 128.74 172.878 129.558 172.878 131.192V136.505C172.878 138.14 171.652 139.366 170.426 139.366Z" fill="url(#paint10_linear_2811_6895)"/>
<defs>
<linearGradient id="paint0_linear_2811_6895" x1="80.2361" y1="3.25801" x2="137.952" y2="73.2317" gradientUnits="userSpaceOnUse">
<stop stop-color="#228B22"/>
<stop offset="0.43" stop-color="#22A222"/>
<stop offset="1"/>
</linearGradient>
<linearGradient id="paint1_linear_2811_6895" x1="50.9788" y1="37.9649" x2="72.2752" y2="60.3484" gradientUnits="userSpaceOnUse">
<stop stop-color="#228B22"/>
<stop offset="0.43" stop-color="#22A222"/>
<stop offset="1"/>
</linearGradient>
<linearGradient id="paint2_linear_2811_6895" x1="143.014" y1="37.9649" x2="164.29" y2="60.6939" gradientUnits="userSpaceOnUse">
<stop stop-color="#228B22"/>
<stop offset="0.43" stop-color="#22A222"/>
<stop offset="1"/>
</linearGradient>
<linearGradient id="paint3_linear_2811_6895" x1="19.4206" y1="136.12" x2="49.3612" y2="203.482" gradientUnits="userSpaceOnUse">
<stop stop-color="#228B22"/>
<stop offset="0.43" stop-color="#22A222"/>
<stop offset="1"/>
</linearGradient>
<linearGradient id="paint4_linear_2811_6895" x1="33.239" y1="72.101" x2="83.3036" y2="122.948" gradientUnits="userSpaceOnUse">
<stop stop-color="#228B22"/>
<stop offset="0.43" stop-color="#22A222"/>
<stop offset="1"/>
</linearGradient>
<linearGradient id="paint5_linear_2811_6895" x1="37.3962" y1="129.179" x2="44.401" y2="133.403" gradientUnits="userSpaceOnUse">
<stop stop-color="#228B22"/>
<stop offset="0.43" stop-color="#22A222"/>
<stop offset="1"/>
</linearGradient>
<linearGradient id="paint6_linear_2811_6895" x1="60.3618" y1="129.179" x2="67.5971" y2="133.878" gradientUnits="userSpaceOnUse">
<stop stop-color="#228B22"/>
<stop offset="0.43" stop-color="#22A222"/>
<stop offset="1"/>
</linearGradient>
<linearGradient id="paint7_linear_2811_6895" x1="127.725" y1="136.12" x2="157.665" y2="203.482" gradientUnits="userSpaceOnUse">
<stop stop-color="#228B22"/>
<stop offset="0.43" stop-color="#22A222"/>
<stop offset="1"/>
</linearGradient>
<linearGradient id="paint8_linear_2811_6895" x1="141.466" y1="72.101" x2="191.529" y2="123.025" gradientUnits="userSpaceOnUse">
<stop stop-color="#228B22"/>
<stop offset="0.43" stop-color="#22A222"/>
<stop offset="1"/>
</linearGradient>
<linearGradient id="paint9_linear_2811_6895" x1="145.7" y1="129.179" x2="152.705" y2="133.403" gradientUnits="userSpaceOnUse">
<stop stop-color="#228B22"/>
<stop offset="0.43" stop-color="#22A222"/>
<stop offset="1"/>
</linearGradient>
<linearGradient id="paint10_linear_2811_6895" x1="168.587" y1="129.179" x2="175.592" y2="133.403" gradientUnits="userSpaceOnUse">
<stop stop-color="#228B22"/>
<stop offset="0.43" stop-color="#22A222"/>
<stop offset="1"/>
</linearGradient>
</defs>
</svg>
