<svg width="39" height="38" viewBox="0 0 39 38" fill="none" xmlns="http://www.w3.org/2000/svg">
<path d="M19.4375 38C8.95657 38 0.4375 29.4809 0.4375 19C0.4375 8.51907 8.95657 0 19.4375 0C29.9184 0 38.4375 8.51907 38.4375 19C38.4375 29.4809 29.9184 38 19.4375 38ZM19.4375 2.65116C10.4235 2.65116 3.08866 9.98605 3.08866 19C3.08866 28.014 10.4235 35.3488 19.4375 35.3488C28.4515 35.3488 35.7863 28.014 35.7863 19C35.7863 9.98605 28.4515 2.65116 19.4375 2.65116Z" fill="#228B22"/>
<path d="M14.4358 25.3282C14.0999 25.3282 13.7641 25.2045 13.499 24.9394C12.9865 24.4268 12.9865 23.5784 13.499 23.0659L23.5027 13.0622C24.0153 12.5496 24.8637 12.5496 25.3762 13.0622C25.8888 13.5747 25.8888 14.4231 25.3762 14.9356L15.3725 24.9394C15.1251 25.2045 14.7716 25.3282 14.4358 25.3282Z" fill="#228B22"/>
<path d="M24.4395 25.3282C24.1037 25.3282 23.7679 25.2045 23.5027 24.9394L13.499 14.9356C12.9865 14.4231 12.9865 13.5747 13.499 13.0622C14.0116 12.5496 14.8599 12.5496 15.3725 13.0622L25.3762 23.0659C25.8888 23.5784 25.8888 24.4268 25.3762 24.9394C25.1111 25.2045 24.7753 25.3282 24.4395 25.3282Z" fill="#228B22"/>
</svg>
