<svg xmlns="http://www.w3.org/2000/svg" xmlns:xlink="http://www.w3.org/1999/xlink" width="1080" zoomAndPan="magnify" viewBox="0 0 810 809.999993" height="1080" preserveAspectRatio="xMidYMid meet" version="1.0"><defs><g/><clipPath id="6510f53bd3"><path d="M 182.25 182.25 L 627.75 182.25 L 627.75 627.75 L 182.25 627.75 Z M 182.25 182.25 " clip-rule="nonzero"/></clipPath><clipPath id="ebb356f546"><path d="M 405 182.25 C 281.980469 182.25 182.25 281.980469 182.25 405 C 182.25 528.019531 281.980469 627.75 405 627.75 C 528.019531 627.75 627.75 528.019531 627.75 405 C 627.75 281.980469 528.019531 182.25 405 182.25 Z M 405 182.25 " clip-rule="nonzero"/></clipPath><clipPath id="055fa657f5"><path d="M 293 374 L 483 374 L 483 471 L 293 471 Z M 293 374 " clip-rule="nonzero"/></clipPath><clipPath id="a834fbe297"><path d="M 293.125 451.714844 L 441.476562 326.316406 L 516.523438 415.097656 L 368.171875 540.496094 Z M 293.125 451.714844 " clip-rule="nonzero"/></clipPath><clipPath id="d92fba84fb"><path d="M 293.125 451.714844 L 441.476562 326.316406 L 516.523438 415.097656 L 368.171875 540.496094 Z M 293.125 451.714844 " clip-rule="nonzero"/></clipPath></defs><g clip-path="url(#6510f53bd3)"><g clip-path="url(#ebb356f546)"><path fill="#ffffff" d="M 182.25 182.25 L 627.75 182.25 L 627.75 627.75 L 182.25 627.75 Z M 182.25 182.25 " fill-opacity="1" fill-rule="nonzero"/></g></g><g clip-path="url(#055fa657f5)"><g clip-path="url(#a834fbe297)"><g clip-path="url(#d92fba84fb)"><path fill="#228b22" d="M 482.609375 374.351562 L 481.519531 374.535156 L 422.75 384.257812 L 386.273438 390.292969 L 406.234375 414.121094 C 401.773438 419.796875 396.679688 425.113281 390.945312 429.957031 C 385.75 434.351562 380.242188 438.140625 374.53125 441.390625 C 350.917969 454.824219 323.613281 458.519531 298.089844 452.925781 C 296.433594 452.636719 295.039062 452.296875 293.921875 451.917969 C 293.683594 451.855469 293.441406 451.792969 293.199219 451.730469 C 311.972656 463.328125 333.261719 469.644531 354.8125 470.421875 C 381.71875 471.394531 408.988281 463.75 432.222656 447.183594 C 432.628906 446.953125 433.019531 446.75 433.425781 446.507812 L 452.59375 469.402344 L 482.609375 374.351562 " fill-opacity="1" fill-rule="nonzero"/></g></g></g><g fill="#228b22" fill-opacity="1"><g transform="translate(252.959393, 463.693051)"><g><path d="M -4.421875 -21.53125 C -2.992188 -15.457031 -3.351562 -10.328125 -5.5 -6.140625 C -7.65625 -1.953125 -11.390625 0.773438 -16.703125 2.046875 C -22.015625 3.328125 -26.585938 2.601562 -30.421875 -0.125 C -34.253906 -2.863281 -36.90625 -7.285156 -38.375 -13.390625 C -39.519531 -18.160156 -39.660156 -22.425781 -38.796875 -26.1875 L -30.171875 -28.265625 L -30.078125 -27.890625 C -33.078125 -26.203125 -35.039062 -24.253906 -35.96875 -22.046875 C -36.894531 -19.835938 -37.015625 -17.304688 -36.328125 -14.453125 C -35.410156 -10.628906 -33.398438 -8.019531 -30.296875 -6.625 C -27.191406 -5.226562 -23.367188 -5.070312 -18.828125 -6.15625 C -14.296875 -7.25 -10.925781 -9.101562 -8.71875 -11.71875 C -6.457031 -14.457031 -5.75 -17.59375 -6.59375 -21.125 C -7.21875 -23.695312 -8.125 -25.71875 -9.3125 -27.1875 C -10.507812 -28.65625 -12.101562 -29.664062 -14.09375 -30.21875 C -16.082031 -30.78125 -18.632812 -30.929688 -21.75 -30.671875 L -21.84375 -31.0625 L -13.8125 -33.6875 C -11.695312 -33 -9.800781 -31.640625 -8.125 -29.609375 C -6.457031 -27.585938 -5.222656 -24.894531 -4.421875 -21.53125 Z M -4.421875 -21.53125 "/></g></g></g><g fill="#228b22" fill-opacity="1"><g transform="translate(244.147894, 423.507543)"><g><path d="M 0 -1.890625 L -0.5625 -1.890625 L -0.578125 -2.5625 C -0.578125 -3.414062 -0.851562 -4.128906 -1.40625 -4.703125 C -1.96875 -5.273438 -2.65625 -5.5625 -3.46875 -5.5625 L -29.96875 -5.46875 C -30.78125 -5.457031 -31.472656 -5.15625 -32.046875 -4.5625 C -32.628906 -3.96875 -32.921875 -3.257812 -32.921875 -2.4375 L -32.90625 -1.765625 L -33.453125 -1.765625 L -33.515625 -17.28125 L -32.96875 -17.28125 L -32.96875 -16.609375 C -32.96875 -15.753906 -32.6875 -15.023438 -32.125 -14.421875 C -31.5625 -13.828125 -30.851562 -13.535156 -30 -13.546875 L -2.28125 -13.640625 L -2.3125 -20.34375 C -2.351562 -22.644531 -3.070312 -24.59375 -4.46875 -26.1875 C -5.875 -27.78125 -7.84375 -28.945312 -10.375 -29.6875 L -10.375 -30.3125 L -0.109375 -28.15625 Z M 0 -1.890625 "/></g></g></g><g fill="#228b22" fill-opacity="1"><g transform="translate(244.854553, 389.077264)"><g><path d="M -0.21875 -1.953125 L -0.09375 -2.609375 C 0.0625 -3.492188 -0.0859375 -4.296875 -0.546875 -5.015625 C -1.003906 -5.742188 -1.640625 -6.175781 -2.453125 -6.3125 L -28.46875 -10.9375 C -29.269531 -11.082031 -30.007812 -10.894531 -30.6875 -10.375 C -31.375 -9.851562 -31.796875 -9.148438 -31.953125 -8.265625 L -32.078125 -7.609375 L -32.609375 -7.703125 L -29.84375 -23.3125 L -29.3125 -23.21875 L -29.421875 -22.546875 C -29.566406 -21.703125 -29.421875 -20.921875 -28.984375 -20.203125 C -28.546875 -19.492188 -27.921875 -19.046875 -27.109375 -18.859375 L -1.046875 -14.21875 C -0.203125 -14.113281 0.550781 -14.320312 1.21875 -14.84375 C 1.882812 -15.363281 2.289062 -16.046875 2.4375 -16.890625 L 2.546875 -17.5625 L 3.09375 -17.46875 L 0.328125 -1.859375 Z M -0.21875 -1.953125 "/></g></g></g><g fill="#228b22" fill-opacity="1"><g transform="translate(248.386048, 366.018205)"><g><path d="M 8.75 -20.171875 C 6.425781 -14.367188 3.179688 -10.375 -0.984375 -8.1875 C -5.160156 -6 -9.785156 -5.90625 -14.859375 -7.90625 C -19.941406 -9.914062 -23.265625 -13.140625 -24.828125 -17.578125 C -26.398438 -22.015625 -26.03125 -27.15625 -23.71875 -33 C -21.914062 -37.5625 -19.582031 -41.132812 -16.71875 -43.71875 L -8.46875 -40.453125 L -8.609375 -40.09375 C -12.035156 -40.445312 -14.757812 -39.984375 -16.78125 -38.703125 C -18.800781 -37.429688 -20.351562 -35.429688 -21.4375 -32.703125 C -22.882812 -29.035156 -22.738281 -25.738281 -21 -22.8125 C -19.257812 -19.894531 -16.21875 -17.578125 -11.875 -15.859375 C -7.539062 -14.140625 -3.71875 -13.722656 -0.40625 -14.609375 C 3.007812 -15.535156 5.382812 -17.691406 6.71875 -21.078125 C 7.695312 -23.535156 8.117188 -25.707031 7.984375 -27.59375 C 7.847656 -29.488281 7.125 -31.238281 5.8125 -32.84375 C 4.5 -34.445312 2.5 -36.035156 -0.1875 -37.609375 L -0.046875 -37.96875 L 8.03125 -35.5 C 9.363281 -33.726562 10.132812 -31.53125 10.34375 -28.90625 C 10.550781 -26.289062 10.019531 -23.378906 8.75 -20.171875 Z M 8.75 -20.171875 "/></g></g></g><g fill="#228b22" fill-opacity="1"><g transform="translate(263.793731, 328.12119)"><g><path d="M 1.171875 -1.625 L 0.71875 -1.953125 L 1.046875 -2.40625 C 1.742188 -3.363281 1.878906 -4.363281 1.453125 -5.40625 C 1.242188 -5.875 0.925781 -6.296875 0.5 -6.671875 L -20.90625 -22.203125 C -21.863281 -22.828125 -22.863281 -22.90625 -23.90625 -22.4375 C -24.394531 -22.1875 -24.804688 -21.835938 -25.140625 -21.390625 L -25.5 -20.890625 L -25.9375 -21.21875 L -16.859375 -33.734375 L -16.421875 -33.40625 L -16.78125 -32.890625 C -17.257812 -32.234375 -17.453125 -31.492188 -17.359375 -30.671875 C -17.273438 -29.859375 -16.910156 -29.1875 -16.265625 -28.65625 L 5.171875 -13.109375 C 5.859375 -12.671875 6.609375 -12.519531 7.421875 -12.65625 C 8.234375 -12.800781 8.894531 -13.21875 9.40625 -13.90625 L 9.734375 -14.375 L 10.21875 -14.09375 Z M 22.75 -31.375 L 20.234375 -27.90625 C 17.203125 -23.71875 13.878906 -21.570312 10.265625 -21.46875 C 9.929688 -21.5 8.535156 -21.503906 6.078125 -21.484375 C -0.367188 -21.523438 -3.609375 -21.554688 -3.640625 -21.578125 L -9.203125 -39.75 C -9.378906 -40.375 -9.734375 -40.71875 -10.265625 -40.78125 C -10.796875 -40.84375 -11.242188 -40.617188 -11.609375 -40.109375 L -11.90625 -39.703125 L -12.3125 -40 L -5.625 -49.21875 L -5.21875 -48.921875 L -5.359375 -48.71875 C -6.535156 -47.101562 -6.984375 -45.363281 -6.703125 -43.5 L -3.265625 -29.578125 L 16.796875 -29.5 C 19.378906 -29.457031 21.226562 -30.179688 22.34375 -31.671875 Z M 22.75 -31.375 "/></g></g></g><g fill="#228b22" fill-opacity="1"><g transform="translate(289.189206, 295.537517)"><g/></g></g><g fill="#228b22" fill-opacity="1"><g transform="translate(302.15998, 282.795096)"><g><path d="M 7.859375 -36.078125 L 7.53125 -36.546875 C 6.632812 -37.867188 5.550781 -38.664062 4.28125 -38.9375 C 3.007812 -39.21875 1.6875 -38.910156 0.3125 -38.015625 L -6.328125 -33.5 L 1.328125 -22.296875 L 6.625 -25.90625 C 8.039062 -26.9375 8.660156 -28.242188 8.484375 -29.828125 C 8.378906 -30.566406 8.097656 -31.269531 7.640625 -31.9375 L 7.421875 -32.265625 L 7.9375 -32.609375 L 14.59375 -22.84375 L 14.078125 -22.5 L 13.859375 -22.828125 C 12.867188 -24.265625 11.617188 -24.941406 10.109375 -24.859375 C 9.359375 -24.835938 8.628906 -24.585938 7.921875 -24.109375 L 2.578125 -20.46875 L 9.296875 -10.609375 C 9.804688 -9.921875 10.457031 -9.507812 11.25 -9.375 C 12.050781 -9.238281 12.804688 -9.414062 13.515625 -9.90625 L 14.0625 -10.28125 L 14.375 -9.8125 L 1.5625 -1.0625 L 1.25 -1.53125 L 1.796875 -1.90625 C 2.503906 -2.394531 2.9375 -3.03125 3.09375 -3.8125 C 3.257812 -4.59375 3.125 -5.332031 2.6875 -6.03125 L -12.265625 -27.953125 C -12.734375 -28.628906 -13.367188 -29.03125 -14.171875 -29.15625 C -14.972656 -29.289062 -15.726562 -29.113281 -16.4375 -28.625 L -16.984375 -28.25 L -17.296875 -28.703125 L -1.03125 -39.796875 C 1.019531 -41.203125 2.472656 -42.535156 3.328125 -43.796875 L 8.359375 -36.421875 Z M 7.859375 -36.078125 "/></g></g></g><g fill="#228b22" fill-opacity="1"><g transform="translate(329.045729, 263.900969)"><g><path d="M -3.96875 -16.359375 C -5.832031 -21.378906 -5.628906 -25.988281 -3.359375 -30.1875 C -1.085938 -34.382812 2.84375 -37.515625 8.4375 -39.578125 C 14.03125 -41.648438 19.066406 -41.835938 23.546875 -40.140625 C 28.023438 -38.453125 31.191406 -35.097656 33.046875 -30.078125 C 34.910156 -25.054688 34.691406 -20.445312 32.390625 -16.25 C 30.097656 -12.050781 26.160156 -8.921875 20.578125 -6.859375 C 15.003906 -4.796875 9.984375 -4.609375 5.515625 -6.296875 C 1.046875 -7.984375 -2.113281 -11.335938 -3.96875 -16.359375 Z M 4.015625 -19.3125 C 5.640625 -14.925781 7.878906 -11.800781 10.734375 -9.9375 C 13.585938 -8.082031 16.609375 -7.742188 19.796875 -8.921875 C 22.984375 -10.109375 25.050781 -12.332031 26 -15.59375 C 26.945312 -18.863281 26.609375 -22.691406 24.984375 -27.078125 C 23.359375 -31.472656 21.117188 -34.601562 18.265625 -36.46875 C 15.421875 -38.332031 12.40625 -38.671875 9.21875 -37.484375 C 6.03125 -36.304688 3.957031 -34.082031 3 -30.8125 C 2.050781 -27.539062 2.390625 -23.707031 4.015625 -19.3125 Z M 4.015625 -19.3125 "/></g></g></g><g fill="#228b22" fill-opacity="1"><g transform="translate(372.447629, 248.682165)"><g><path d="M 12.890625 -32.484375 L 11.109375 -32.3125 L 13.625 -4.765625 C 13.695312 -3.867188 14.066406 -3.179688 14.734375 -2.703125 C 15.398438 -2.234375 16.117188 -2.035156 16.890625 -2.109375 L 17.5 -2.171875 L 17.546875 -1.609375 L 2.265625 -0.203125 L 2.21875 -0.765625 L 2.890625 -0.828125 C 3.710938 -0.898438 4.378906 -1.238281 4.890625 -1.84375 C 5.410156 -2.445312 5.632812 -3.15625 5.5625 -3.96875 L 3.140625 -30.40625 C 3.066406 -31.226562 2.722656 -31.890625 2.109375 -32.390625 C 1.492188 -32.890625 0.796875 -33.109375 0.015625 -33.046875 L -0.71875 -32.96875 L -0.78125 -33.515625 L 16.28125 -35.078125 C 19.613281 -35.378906 22.472656 -34.988281 24.859375 -33.90625 C 27.503906 -32.6875 28.984375 -30.414062 29.296875 -27.09375 C 29.484375 -24.9375 29.007812 -22.9375 27.875 -21.09375 C 26.738281 -19.257812 24.910156 -18.039062 22.390625 -17.4375 C 23.410156 -17.195312 24.453125 -16.660156 25.515625 -15.828125 C 26.578125 -14.992188 27.445312 -14.117188 28.125 -13.203125 C 29.507812 -11.203125 30.929688 -9.378906 32.390625 -7.734375 C 33.847656 -6.097656 35 -5.054688 35.84375 -4.609375 C 36.6875 -4.171875 37.679688 -4.003906 38.828125 -4.109375 L 38.875 -3.546875 L 34.21875 -3.125 C 31.132812 -2.84375 28.734375 -2.992188 27.015625 -3.578125 C 25.304688 -4.171875 23.710938 -5.453125 22.234375 -7.421875 C 19.941406 -10.410156 18.472656 -12.8125 17.828125 -14.625 C 17.273438 -15.6875 16.664062 -16.46875 16 -16.96875 C 15.34375 -17.46875 14.734375 -17.726562 14.171875 -17.75 L 14.125 -18.203125 L 15.515625 -18.34375 C 18.660156 -18.65625 20.421875 -20.675781 20.796875 -24.40625 C 20.890625 -24.976562 20.914062 -25.46875 20.875 -25.875 C 20.84375 -26.28125 20.773438 -26.84375 20.671875 -27.5625 C 20.566406 -28.28125 20.257812 -29.070312 19.75 -29.9375 C 19.238281 -30.8125 18.628906 -31.421875 17.921875 -31.765625 C 16.710938 -32.367188 15.492188 -32.632812 14.265625 -32.5625 C 13.867188 -32.550781 13.410156 -32.523438 12.890625 -32.484375 Z M 12.890625 -32.484375 "/></g></g></g><g fill="#228b22" fill-opacity="1"><g transform="translate(412.842425, 246.371705)"><g/></g></g><g fill="#228b22" fill-opacity="1"><g transform="translate(430.922527, 247.61689)"><g><path d="M 27.234375 7.109375 L 1.828125 0.484375 L 1.96875 -0.0625 L 2.625 0.09375 C 3.445312 0.3125 4.207031 0.226562 4.90625 -0.15625 C 5.601562 -0.550781 6.070312 -1.140625 6.3125 -1.921875 L 13.015625 -27.609375 C 13.191406 -28.410156 13.070312 -29.15625 12.65625 -29.84375 C 12.238281 -30.53125 11.617188 -30.984375 10.796875 -31.203125 L 10.140625 -31.359375 L 10.28125 -31.875 L 29.28125 -26.921875 C 30.25 -26.660156 31.332031 -26.472656 32.53125 -26.359375 C 33.726562 -26.242188 34.585938 -26.21875 35.109375 -26.28125 L 32.859375 -17.6875 L 32.3125 -17.828125 L 32.453125 -18.328125 C 32.859375 -19.910156 32.75 -21.257812 32.125 -22.375 C 31.5 -23.5 30.414062 -24.285156 28.875 -24.734375 L 21.109375 -26.765625 L 17.6875 -13.640625 L 23.828125 -12.03125 C 25.066406 -11.75 26.171875 -11.90625 27.140625 -12.5 C 28.109375 -13.101562 28.75 -14.015625 29.0625 -15.234375 L 29.15625 -15.609375 L 29.671875 -15.46875 L 26.6875 -4.046875 L 26.171875 -4.1875 L 26.28125 -4.5625 C 26.71875 -6.25 26.40625 -7.628906 25.34375 -8.703125 C 24.789062 -9.285156 24.117188 -9.675781 23.328125 -9.875 L 17.125 -11.5 L 13.78125 1.296875 L 20.265625 2.984375 C 22.503906 3.535156 24.578125 3.335938 26.484375 2.390625 C 28.398438 1.453125 30.039062 -0.144531 31.40625 -2.40625 L 31.890625 -2.28125 Z M 27.234375 7.109375 "/></g></g></g><g fill="#228b22" fill-opacity="1"><g transform="translate(464.301346, 255.94523)"><g><path d="M 39.5 -16.390625 L 53.21875 -8.8125 L 52.953125 -8.34375 L 52.125 -8.8125 C 51.375 -9.226562 50.617188 -9.34375 49.859375 -9.15625 C 49.109375 -8.976562 48.519531 -8.539062 48.09375 -7.84375 L 36.3125 13.484375 C 35.195312 15.503906 34.410156 17.234375 33.953125 18.671875 L 33.6875 19.421875 L 33.234375 19.171875 L 21.734375 -12.96875 L 12.8125 3.1875 C 12.457031 3.925781 12.398438 4.671875 12.640625 5.421875 C 12.890625 6.171875 13.390625 6.75 14.140625 7.15625 L 14.953125 7.609375 L 14.6875 8.109375 L 1.03125 0.5625 L 1.296875 0.0625 L 2.078125 0.5 C 2.816406 0.90625 3.578125 1.019531 4.359375 0.84375 C 5.140625 0.664062 5.726562 0.21875 6.125 -0.5 L 17.984375 -21.96875 C 19.066406 -23.914062 19.832031 -25.597656 20.28125 -27.015625 L 20.546875 -27.75 L 20.96875 -27.46875 L 32.453125 4.546875 L 41.328125 -11.515625 C 41.722656 -12.222656 41.800781 -12.953125 41.5625 -13.703125 C 41.320312 -14.460938 40.828125 -15.050781 40.078125 -15.46875 L 39.234375 -15.921875 Z M 39.5 -16.390625 "/></g></g></g><g fill="#228b22" fill-opacity="1"><g transform="translate(504.303359, 278.49667)"><g><path d="M 27.171875 33.390625 C 28.898438 37.296875 31.132812 40.617188 33.875 43.359375 C 36.625 46.109375 39.773438 47.675781 43.328125 48.0625 L 43.40625 48.390625 C 41.332031 50.316406 38.8125 51.160156 35.84375 50.921875 C 32.601562 50.628906 29.632812 49.132812 26.9375 46.4375 C 24.238281 43.75 22.082031 40.007812 20.46875 35.21875 C 19.90625 33.394531 19.351562 31.019531 18.8125 28.09375 C 18.28125 25.164062 17.722656 22.691406 17.140625 20.671875 C 16.566406 18.648438 15.710938 16.96875 14.578125 15.625 L 14.46875 15.5 C 10.34375 11.375 8.15625 6.960938 7.90625 2.265625 C 7.65625 -2.429688 9.421875 -6.671875 13.203125 -10.453125 C 16.992188 -14.242188 21.234375 -16.007812 25.921875 -15.75 C 30.617188 -15.5 35.019531 -13.316406 39.125 -9.203125 C 43.238281 -5.085938 45.429688 -0.679688 45.703125 4.015625 C 45.972656 8.722656 44.210938 12.972656 40.421875 16.765625 C 36.472656 20.710938 32.050781 22.472656 27.15625 22.046875 C 24.820312 21.804688 22.515625 21.066406 20.234375 19.828125 C 21.703125 22.046875 22.910156 24.1875 23.859375 26.25 C 24.816406 28.3125 25.921875 30.691406 27.171875 33.390625 Z M 19.28125 -4.375 C 15.96875 -1.0625 14.019531 2.234375 13.4375 5.515625 C 12.863281 8.804688 13.734375 11.609375 16.046875 13.921875 C 18.359375 16.234375 21.148438 17.109375 24.421875 16.546875 C 27.691406 15.984375 30.988281 14.035156 34.3125 10.703125 C 37.644531 7.378906 39.597656 4.070312 40.171875 0.78125 C 40.753906 -2.5 39.890625 -5.296875 37.578125 -7.609375 C 36.046875 -9.128906 34.28125 -10.035156 32.28125 -10.328125 C 30.289062 -10.617188 28.171875 -10.242188 25.921875 -9.203125 C 23.679688 -8.160156 21.46875 -6.550781 19.28125 -4.375 Z M 19.28125 -4.375 "/></g></g></g><g fill="#228b22" fill-opacity="1"><g transform="translate(535.931589, 310.966503)"><g><path d="M 47.46875 17 L 47.09375 16.3125 C 46.738281 15.695312 46.253906 15.28125 45.640625 15.0625 C 45.023438 14.851562 44.421875 14.898438 43.828125 15.203125 L 27.78125 24.3125 C 24.289062 26.289062 20.941406 26.78125 17.734375 25.78125 C 14.535156 24.78125 11.738281 22.164062 9.34375 17.9375 C 6.957031 13.71875 6.066406 9.890625 6.671875 6.453125 C 7.273438 3.015625 9.34375 0.296875 12.875 -1.703125 L 28.96875 -10.84375 C 29.550781 -11.175781 29.914062 -11.671875 30.0625 -12.328125 C 30.207031 -12.992188 30.101562 -13.632812 29.75 -14.25 L 29.359375 -14.9375 L 29.828125 -15.203125 L 37.078125 -2.4375 L 36.609375 -2.171875 L 36.21875 -2.84375 C 35.863281 -3.457031 35.375 -3.863281 34.75 -4.0625 C 34.125 -4.269531 33.519531 -4.207031 32.9375 -3.875 L 17.171875 5.0625 C 14.203125 6.75 12.265625 8.757812 11.359375 11.09375 C 10.453125 13.425781 10.703125 15.835938 12.109375 18.328125 C 13.515625 20.816406 15.421875 22.328125 17.828125 22.859375 C 20.234375 23.398438 22.84375 22.867188 25.65625 21.265625 L 41.953125 12.03125 C 42.554688 11.65625 42.925781 11.148438 43.0625 10.515625 C 43.195312 9.890625 43.085938 9.269531 42.734375 8.65625 L 42.390625 8.03125 L 42.859375 7.765625 L 47.9375 16.734375 Z M 47.46875 17 "/></g></g></g><g fill="#228b22" fill-opacity="1"><g transform="translate(555.82098, 348.779591)"><g><path d="M 1.109375 1.625 L 1.3125 2.265625 C 1.59375 3.117188 2.101562 3.753906 2.84375 4.171875 C 3.582031 4.597656 4.34375 4.6875 5.125 4.4375 L 30.28125 -3.671875 C 31.0625 -3.921875 31.628906 -4.429688 31.984375 -5.203125 C 32.335938 -5.984375 32.375 -6.800781 32.09375 -7.65625 L 31.890625 -8.296875 L 32.421875 -8.46875 L 37.28125 6.609375 L 36.75 6.78125 L 36.546875 6.140625 C 36.285156 5.328125 35.796875 4.707031 35.078125 4.28125 C 34.359375 3.851562 33.597656 3.742188 32.796875 3.953125 L 7.59375 12.078125 C 6.789062 12.378906 6.21875 12.914062 5.875 13.6875 C 5.539062 14.457031 5.503906 15.25 5.765625 16.0625 L 5.96875 16.703125 L 5.4375 16.875 L 0.578125 1.796875 Z M 1.109375 1.625 "/></g></g></g><g fill="#228b22" fill-opacity="1"><g transform="translate(563.444352, 370.870863)"><g><path d="M 32.78125 12.09375 L 32.578125 10.328125 L 5.109375 13.5 C 4.210938 13.601562 3.535156 13.988281 3.078125 14.65625 C 2.617188 15.332031 2.429688 16.0625 2.515625 16.84375 L 2.59375 17.453125 L 2.03125 17.515625 L 0.265625 2.265625 L 0.828125 2.203125 L 0.90625 2.875 C 1 3.6875 1.351562 4.34375 1.96875 4.84375 C 2.582031 5.351562 3.296875 5.5625 4.109375 5.46875 L 30.46875 2.40625 C 31.289062 2.3125 31.945312 1.945312 32.4375 1.3125 C 32.925781 0.6875 33.125 -0.0078125 33.03125 -0.78125 L 32.953125 -1.515625 L 33.5 -1.578125 L 35.46875 15.4375 C 35.851562 18.757812 35.53125 21.617188 34.5 24.015625 C 33.351562 26.703125 31.117188 28.238281 27.796875 28.625 C 25.648438 28.875 23.640625 28.445312 21.765625 27.34375 C 19.898438 26.25 18.632812 24.453125 17.96875 21.953125 C 17.757812 22.984375 17.25 24.039062 16.4375 25.125 C 15.625 26.207031 14.769531 27.101562 13.875 27.8125 C 11.914062 29.226562 10.132812 30.679688 8.53125 32.171875 C 6.925781 33.671875 5.910156 34.847656 5.484375 35.703125 C 5.066406 36.566406 4.921875 37.566406 5.046875 38.703125 L 4.484375 38.765625 L 3.953125 34.125 C 3.597656 31.050781 3.691406 28.648438 4.234375 26.921875 C 4.785156 25.203125 6.023438 23.578125 7.953125 22.046875 C 10.898438 19.679688 13.265625 18.15625 15.046875 17.46875 C 16.097656 16.882812 16.863281 16.253906 17.34375 15.578125 C 17.832031 14.910156 18.082031 14.289062 18.09375 13.71875 L 18.546875 13.671875 L 18.703125 15.078125 C 19.097656 18.210938 21.164062 19.914062 24.90625 20.1875 C 25.46875 20.269531 25.953125 20.285156 26.359375 20.234375 C 26.773438 20.191406 27.335938 20.109375 28.046875 19.984375 C 28.765625 19.867188 29.550781 19.546875 30.40625 19.015625 C 31.269531 18.492188 31.863281 17.875 32.1875 17.15625 C 32.757812 15.925781 32.992188 14.703125 32.890625 13.484375 C 32.878906 13.078125 32.84375 12.613281 32.78125 12.09375 Z M 32.78125 12.09375 "/></g></g></g><g fill="#228b22" fill-opacity="1"><g transform="translate(567.565355, 410.307896)"><g><path d="M 27.953125 41.21875 L 28.03125 40.484375 C 28.15625 39.523438 28.015625 38.578125 27.609375 37.640625 C 27.203125 36.710938 26.648438 35.925781 25.953125 35.28125 L 12.03125 23.515625 L 0.75 22.078125 C -0.0703125 22.003906 -0.800781 22.226562 -1.4375 22.75 C -2.082031 23.28125 -2.460938 23.984375 -2.578125 24.859375 L -2.65625 25.484375 L -3.21875 25.40625 L -1.25 9.90625 L -0.6875 9.984375 L -0.78125 10.65625 C -0.882812 11.5 -0.6875 12.25 -0.1875 12.90625 C 0.300781 13.5625 0.945312 13.960938 1.75 14.109375 L 13.03125 15.546875 L 29.453125 7.671875 C 30.316406 7.242188 31.050781 6.632812 31.65625 5.84375 C 32.269531 5.050781 32.640625 4.15625 32.765625 3.15625 L 32.84375 2.484375 L 33.390625 2.546875 L 31.265625 19.359375 L 30.71875 19.296875 L 30.796875 18.703125 C 30.890625 17.992188 30.722656 17.453125 30.296875 17.078125 C 29.867188 16.710938 29.5 16.507812 29.1875 16.46875 C 28.875 16.4375 28.582031 16.472656 28.3125 16.578125 L 14.65625 22.328125 L 26.4375 31.40625 C 26.675781 31.550781 26.953125 31.640625 27.265625 31.671875 C 27.578125 31.710938 27.984375 31.601562 28.484375 31.34375 C 28.992188 31.09375 29.289062 30.625 29.375 29.9375 L 29.4375 29.375 L 29.984375 29.4375 L 28.5 41.28125 Z M 27.953125 41.21875 "/></g></g></g><g fill="#228b22" fill-opacity="1"><g transform="translate(561.344176, 449.105865)"><g/></g></g></svg>