<svg width="451" height="433" viewBox="0 0 451 433" fill="none" xmlns="http://www.w3.org/2000/svg">
<path d="M130.036 370.35H89.6354C27.7736 365.931 0 318.377 0 276.084C0 233.791 27.7739 186.027 88.5836 181.819C97.2106 180.977 104.785 187.71 105.416 196.548C106.048 205.175 99.5259 212.75 90.6885 213.381C49.8681 216.327 31.5621 247.047 31.5621 276.295C31.5621 305.542 49.8681 336.263 90.6885 339.209H130.036C138.663 339.209 145.817 346.363 145.817 354.99C145.817 363.617 138.663 370.35 130.036 370.35Z" fill="#D9D9D9"/>
<path d="M323.813 370.345C323.392 370.345 323.182 370.345 322.761 370.345C314.134 370.345 306.139 363.191 306.139 354.564C306.139 345.516 312.872 338.783 321.71 338.783C347.591 338.783 370.736 329.735 388.832 313.533C421.656 284.917 423.76 243.675 414.923 214.638C406.086 185.811 381.467 152.776 338.542 147.516C331.599 146.674 326.128 141.414 324.865 134.47C316.448 83.971 289.306 49.0422 248.065 36.4174C205.561 23.1613 155.902 36.2069 124.972 68.6107C94.8823 99.9624 87.9388 143.939 105.403 192.334C108.349 200.541 104.142 209.588 95.9356 212.534C87.7294 215.48 78.6811 211.272 75.7353 203.065C54.4835 143.729 64.1628 86.9168 102.248 46.9381C141.174 6.1177 203.667 -10.0844 257.323 6.32795C306.56 21.4778 341.277 62.0878 353.902 118.479C396.827 128.158 431.335 160.772 445.012 205.801C459.951 254.827 446.485 305.327 409.663 337.31C386.307 358.351 355.796 370.345 323.813 370.345Z" fill="#D9D9D9"/>
<path d="M225.561 432.209C183.267 432.209 143.71 409.695 122.037 373.293C119.723 369.716 117.408 365.508 115.514 360.879C108.36 345.939 104.572 328.896 104.572 311.221C104.572 244.52 158.859 190.233 225.561 190.233C292.262 190.233 346.549 244.52 346.549 311.221C346.549 329.106 342.762 345.939 335.187 361.51C333.504 365.508 331.189 369.716 328.664 373.714C307.412 409.695 267.854 432.209 225.561 432.209ZM225.561 221.795C176.324 221.795 136.135 261.984 136.135 311.221C136.135 324.267 138.87 336.47 144.13 347.622C145.814 351.199 147.286 354.145 148.97 356.881C164.961 384.024 194.209 400.647 225.35 400.647C256.491 400.647 285.739 384.024 301.52 357.302C303.414 354.145 305.098 351.199 306.36 348.254C312.041 336.681 314.776 324.477 314.776 311.431C314.986 261.984 274.798 221.795 225.561 221.795Z" fill="#D9D9D9"/>
<path d="M213.561 347.862C209.563 347.862 205.566 346.389 202.41 343.233L181.578 322.402C175.476 316.3 175.476 306.2 181.578 300.098C187.68 293.996 197.78 293.996 203.882 300.098L213.982 310.198L247.648 279.057C254.171 273.165 264.06 273.586 269.952 279.898C275.844 286.211 275.423 296.311 269.111 302.202L224.292 343.654C221.136 346.389 217.349 347.862 213.561 347.862Z" fill="#D9D9D9"/>
</svg>
