<?xml version="1.0" encoding="UTF-8"?>
<svg id="Layer_1" xmlns="http://www.w3.org/2000/svg" version="1.1" viewBox="0 0 60 60">
  <!-- Generator: Adobe Illustrator 29.0.1, SVG Export Plug-In . SVG Version: 2.1.0 Build 192)  -->
  <defs>
    <style>
      .st0 {
        fill: #fff;
        font-family: Lato-Bold, Lato;
        font-size: 9.9px;
        font-weight: 700;
      }

      .st1 {
        fill-rule: evenodd;
      }

      .st2 {
        fill: #0eb259;
      }
    </style>
  </defs>
  <g>
    <circle class="st2" cx="29.9" cy="6.8" r="5.3"/>
    <polygon class="st1" points="8.8 21.9 22.7 10.3 24.5 12.1 12.6 22.1 8.8 21.9"/>
    <polygon class="st1" points="35.2 12.3 36.9 10.3 51.2 22.1 47.6 22.4 35.2 12.3"/>
  </g>
  <g>
    <path class="st1" d="M4,24.7h51.9c1.3,0,2.4,1.1,2.4,2.4v29c0,1.3-1.1,2.4-2.4,2.4l-51.9-.3c-1.3,0-2.4-1.1-2.4-2.4v-28.8c0-1.3,1.1-2.4,2.4-2.4Z"/>
    <g>
      <text class="st0" transform="translate(17.1 37.7)"><tspan x="0" y="0">NOW</tspan></text>
      <text class="st0" transform="translate(12.6 52.4)"><tspan x="0" y="0">HIRING</tspan></text>
    </g>
  </g>
</svg>