<?xml version="1.0" encoding="UTF-8"?>
<svg id="Layer_1" xmlns="http://www.w3.org/2000/svg" version="1.1" xmlns:xlink="http://www.w3.org/1999/xlink" viewBox="0 0 100 100">
  <!-- Generator: Adobe Illustrator 29.0.1, SVG Export Plug-In . SVG Version: 2.1.0 Build 192)  -->
  <defs>
    <style>
      .st0 {
        fill: #233f94;
      }

      .st1 {
        fill: #278c43;
      }

      .st2 {
        fill: #fff;
        stroke: url(#linear-gradient);
        stroke-miterlimit: 10;
        stroke-width: 2px;
      }
    </style>
    <linearGradient id="linear-gradient" x1="50" y1="2.5" x2="50" y2="97.5" gradientUnits="userSpaceOnUse">
      <stop offset="0" stop-color="#33a852"/>
      <stop offset=".6" stop-color="#184624"/>
      <stop offset="1" stop-color="#164222"/>
    </linearGradient>
  </defs>
  <circle class="st2" cx="50" cy="50" r="46.5"/>
  <g>
    <path class="st1" d="M56.1,27.2c-.4,0-.8.2-1.2.3-6,1.5-12.3,5.9-13.8,14.2,2.8-2.7,5.4-4.2,8.1-4.7,4-.8,8.1.9,13.1,4.9,3.9-2.3,7.7-4.5,11.7-6.8-3.7-5.7-10.9-8.9-17.9-7.8Z"/>
    <path class="st0" d="M49.6,63.1c-4.4-.6-8.4-3.8-10.3-7.7-2.2-4.4-2.6-9.3-1.5-14,1.9-8.8,9.3-16.6,20.3-17.3,0,0,0,0,0,0-2.3-.9-4.7-1.4-7.2-1.4-6.5,0-12.8,1.5-18.1,6.4-4.6,4.3-7.5,9.8-7.7,15.8,0,5.3,2.2,10.3,5.6,14.1,5.1,5,12.9,6.7,18.9,4.1Z"/>
    <path class="st0" d="M63,58.3c0,0-.1,0-.2,0-.2,0-.4-.2-.5-.2,0,0,0,0,0,0,0,0,0,0,0,0-.2.3-.4.5-.6.7-3.6,4.5-8.3,7.1-13.3,8.1,0,0-.1,0-.2,0-.3,0-.5,0-.8.1-.4,0-.7,0-1.1.1-3.5.3-7.1-.1-10.4-1.4-4.2-1.6-7.9-4.5-10.4-8.5,0,.1,0,.3,0,.4.6,2.5,1.6,4.9,3,7.1,4,6.4,10.9,11.2,18.7,12.3,3.3.4,6.5.3,9.7-.3.3,0,.5-.1.8-.2,0,0,.2,0,.3,0,4.9-1.1,9.3-3.3,12.4-6.2h.1c1.8-1.8,3.1-3.5,4.2-5.2,0-.1.2-.3.2-.4l-11.8-6.4Z"/>
  </g>
</svg>