<svg width="710" height="686" viewBox="0 0 710 686" fill="none" xmlns="http://www.w3.org/2000/svg">
<path d="M693.977 243.291V590.279C693.977 634.333 658.264 670.047 614.209 670.047H263.233C219.178 670.047 183.465 634.333 183.465 590.279V95.7209C183.465 51.6666 219.178 15.9535 263.233 15.9535H466.64V131.616C466.64 193.292 516.638 243.291 578.314 243.291H693.977ZM671.415 211.384H578.314C534.26 211.384 498.547 175.671 498.547 131.616V38.5151L671.415 211.384Z" fill="#D60404" stroke="white" stroke-width="31.907"/>
<rect y="303.116" width="478.605" height="279.186" rx="55.8372" fill="white"/>
<path d="M79.3235 510.511V377.082H126.884C137.264 377.082 145.864 378.972 152.683 382.75C159.503 386.529 164.606 391.698 167.994 398.256C171.382 404.771 173.076 412.112 173.076 420.277C173.076 428.486 171.36 435.87 167.929 442.429C164.541 448.944 159.416 454.112 152.553 457.934C145.734 461.713 137.156 463.603 126.819 463.603H94.1128V446.533H124.994C131.553 446.533 136.874 445.404 140.956 443.145C145.039 440.843 148.036 437.716 149.947 433.763C151.858 429.811 152.814 425.316 152.814 420.277C152.814 415.239 151.858 410.765 149.947 406.856C148.036 402.947 145.017 399.885 140.891 397.67C136.808 395.455 131.423 394.347 124.734 394.347H99.4551V510.511H79.3235Z" fill="#FF0000"/>
<path d="M239.872 510.511H196.677V377.082H241.24C254.314 377.082 265.541 379.753 274.923 385.096C284.305 390.395 291.493 398.017 296.488 407.964C301.526 417.867 304.045 429.746 304.045 443.601C304.045 457.5 301.505 469.445 296.423 479.434C291.384 489.424 284.088 497.112 274.532 502.498C264.977 507.84 253.423 510.511 239.872 510.511ZM216.808 492.921H238.764C248.928 492.921 257.376 491.009 264.108 487.187C270.84 483.322 275.879 477.74 279.223 470.443C282.567 463.103 284.24 454.156 284.24 443.601C284.24 433.134 282.567 424.251 279.223 416.955C275.922 409.658 270.992 404.12 264.434 400.341C257.875 396.562 249.731 394.673 240.002 394.673H216.808V492.921Z" fill="#FF0000"/>
<path d="M329.08 510.511V377.082H411.821V394.412H349.211V435.067H405.893V452.332H349.211V510.511H329.08Z" fill="#FF0000"/>
</svg>
