<svg width="755" height="755" viewBox="0 0 755 755" fill="none" xmlns="http://www.w3.org/2000/svg">
<path d="M751.446 35.4537L488.198 729.497C477.483 757.77 451.216 763.403 429.867 742.027C429.867 742.027 264.022 576.181 248.91 561.07C233.798 545.958 239.046 516.256 260.587 495.045L626.458 134.834C647.999 113.623 645.993 111.315 621.979 129.696L210.086 445.231C186.1 463.612 148.98 461.167 127.603 439.791L12.9734 325.161C-8.4029 303.784 -2.77033 277.545 25.5025 266.802L719.546 3.55411C747.819 -7.16153 762.162 7.18094 751.446 35.4537ZM158.404 509.442C147.716 498.754 138.978 502.381 138.978 517.493V643.498C138.978 658.609 149.584 664.599 162.525 656.823L228.495 617.231C241.464 609.455 243.305 594.343 232.617 583.655L158.404 509.442Z" fill="white"/>
</svg>
