<svg width="1018" height="1018" viewBox="0 0 1018 1018" fill="none" xmlns="http://www.w3.org/2000/svg">
<g clip-path="url(#clip0_1337_7695)">
<rect x="103.479" y="391.605" width="413.314" height="36.6618" transform="rotate(-42.7177 103.479 391.605)" fill="#31CA31" fill-opacity="0.31"/>
<rect x="92.873" y="506.977" width="566.521" height="36.6618" transform="rotate(-42.7177 92.873 506.977)" fill="#31CA31" fill-opacity="0.31"/>
<rect x="-71.6895" y="764.504" width="1157.74" height="36.6618" transform="rotate(-42.7177 -71.6895 764.504)" fill="#31CA31" fill-opacity="0.31"/>
<rect x="-11.9805" y="814.948" width="1157.74" height="36.6618" transform="rotate(-42.7177 -11.9805 814.948)" fill="#31CA31" fill-opacity="0.31"/>
<rect x="33.5547" y="878.484" width="1157.74" height="36.6618" transform="rotate(-42.7177 33.5547 878.484)" fill="#31CA31" fill-opacity="0.31"/>
<rect x="125.754" y="1004.51" width="1157.74" height="36.6618" transform="rotate(-42.7177 125.754 1004.51)" fill="#31CA31" fill-opacity="0.31"/>
<rect x="191.416" y="1049.45" width="1157.74" height="36.6618" transform="rotate(-42.7177 191.416 1049.45)" fill="#31CA31" fill-opacity="0.31"/>
<rect x="251.125" y="1099.9" width="1157.74" height="36.6618" transform="rotate(-42.7177 251.125 1099.9)" fill="#31CA31" fill-opacity="0.31"/>
<rect x="311.973" y="1149.3" width="1157.74" height="36.6618" transform="rotate(-42.7177 311.973 1149.3)" fill="#31CA31" fill-opacity="0.31"/>
<rect x="86.1738" y="935.475" width="1157.74" height="36.6618" transform="rotate(-42.7177 86.1738 935.475)" fill="#31CA31" fill-opacity="0.31"/>
</g>
<defs>
<clipPath id="clip0_1337_7695">
<rect x="0.185547" y="489.08" width="719.729" height="719.729" rx="359.865" transform="rotate(-42.7177 0.185547 489.08)" fill="white"/>
</clipPath>
</defs>
</svg>
