<svg width="100" height="100" viewBox="0 0 100 100" fill="none" xmlns="http://www.w3.org/2000/svg">
<circle cx="50" cy="50" r="50" fill="white"/>
<path d="M49.1025 26.1895C35.9834 26.1895 25.293 36.8799 25.293 49.999C25.293 63.118 35.9834 73.8085 49.1025 73.8085C62.2215 73.8085 72.912 63.118 72.912 49.999C72.912 36.8799 62.2215 26.1895 49.1025 26.1895ZM60.4834 44.5228L46.9834 58.0228C46.6501 58.3561 46.1977 58.5466 45.7215 58.5466C45.2453 58.5466 44.793 58.3561 44.4596 58.0228L37.7215 51.2847C37.0311 50.5942 37.0311 49.4514 37.7215 48.7609C38.412 48.0704 39.5549 48.0704 40.2453 48.7609L45.7215 54.2371L57.9596 41.999C58.6501 41.3085 59.793 41.3085 60.4834 41.999C61.1739 42.6895 61.1739 43.8085 60.4834 44.5228Z" fill="#34A853"/>
</svg>
