<svg width="96" height="95" viewBox="0 0 96 95" fill="none" xmlns="http://www.w3.org/2000/svg">
<path d="M83.6247 26.6416C83.5456 26.6416 83.4268 26.6416 83.3081 26.6416C62.3685 24.5437 41.4685 23.752 20.7664 25.8499L12.6914 26.6416C11.0289 26.7999 9.56434 25.6124 9.40601 23.9499C9.24767 22.2874 10.4352 20.8624 12.0581 20.7041L20.1331 19.9124C41.1914 17.7749 62.5268 18.6062 83.9018 20.7041C85.5247 20.8624 86.7122 22.327 86.5539 23.9499C86.4352 25.4937 85.1289 26.6416 83.6247 26.6416Z" fill="#228B22"/>
<path d="M34.1454 22.642C33.9871 22.642 33.8287 22.642 33.6308 22.6024C32.0475 22.3253 30.9391 20.7816 31.2162 19.1982L32.0871 14.0128C32.7204 10.2128 33.5912 4.94824 42.8141 4.94824H53.185C62.4475 4.94824 63.3183 10.4107 63.9121 14.0524L64.7829 19.1982C65.06 20.8212 63.9516 22.3649 62.3683 22.6024C60.7454 22.8795 59.2016 21.7712 58.9641 20.1878L58.0933 15.042C57.5391 11.5982 57.4204 10.9253 53.2246 10.9253H42.8537C38.6579 10.9253 38.5787 11.4795 37.985 15.0024L37.0746 20.1482C36.8371 21.6128 35.5704 22.642 34.1454 22.642Z" fill="#228B22"/>
<path d="M60.7071 90.0552H35.2946C21.48 90.0552 20.9258 82.4157 20.4904 76.2407L17.9175 36.3802C17.7988 34.7573 19.0654 33.3323 20.6883 33.2136C22.3508 33.1344 23.7363 34.3615 23.855 35.9844L26.4279 75.8448C26.8633 81.8615 27.0217 84.1177 35.2946 84.1177H60.7071C69.0196 84.1177 69.1779 81.8615 69.5738 75.8448L72.1467 35.9844C72.2654 34.3615 73.6904 33.1344 75.3133 33.2136C76.9363 33.3323 78.2029 34.7177 78.0842 36.3802L75.5113 76.2407C75.0758 82.4157 74.5217 90.0552 60.7071 90.0552Z" fill="#228B22"/>
<path d="M54.5706 68.2812H41.3893C39.7664 68.2812 38.4206 66.9354 38.4206 65.3125C38.4206 63.6896 39.7664 62.3438 41.3893 62.3438H54.5706C56.1935 62.3438 57.5393 63.6896 57.5393 65.3125C57.5393 66.9354 56.1935 68.2812 54.5706 68.2812Z" fill="#228B22"/>
<path d="M57.8955 52.4482H38.1038C36.4809 52.4482 35.135 51.1024 35.135 49.4795C35.135 47.8566 36.4809 46.5107 38.1038 46.5107H57.8955C59.5184 46.5107 60.8642 47.8566 60.8642 49.4795C60.8642 51.1024 59.5184 52.4482 57.8955 52.4482Z" fill="#228B22"/>
</svg>
