<svg width="317" height="313" viewBox="0 0 317 313" fill="none" xmlns="http://www.w3.org/2000/svg">
<mask id="mask0_2825_7186" style="mask-type:alpha" maskUnits="userSpaceOnUse" x="0" y="0" width="317" height="313">
<path d="M163.007 209.886C167.11 216.75 173.315 222.11 180.703 225.17C188.091 228.23 196.268 228.828 204.023 226.875C207.5 225.997 210.83 224.615 213.907 222.773C219.206 219.609 223.636 215.179 226.799 209.88C228.642 206.803 230.024 203.473 230.902 199.996C232.863 192.241 232.268 184.06 229.206 176.67C226.144 169.28 220.778 163.076 213.907 158.981C210.83 157.138 207.5 155.756 204.023 154.878C196.902 153.072 189.406 153.418 182.482 155.874C175.559 158.329 169.519 162.783 165.128 168.673C160.737 174.562 158.191 181.621 157.814 188.958C157.436 196.294 159.244 203.578 163.007 209.886Z" fill="#2E79BD"/>
<path d="M300.402 174.305H293.108C290.626 159.473 284.799 145.402 276.068 133.157L281.231 127.994C284.332 124.884 286.071 120.67 286.067 116.277C286.064 111.885 284.317 107.674 281.212 104.568C278.106 101.462 273.895 99.7161 269.503 99.7125C265.11 99.7089 260.896 101.448 257.785 104.549L252.623 109.712C240.384 100.982 226.315 95.159 211.487 92.6843V85.3783C211.487 82.0218 210.468 78.7444 208.565 75.9795C206.662 73.2146 203.964 71.0925 200.829 69.8939C197.694 68.6953 194.268 68.4765 191.006 69.2666C187.744 70.0567 184.798 71.8184 182.559 74.3187C184.619 77.9887 185.696 82.1288 185.685 86.3375C185.678 91.9855 183.742 97.4616 180.197 101.859C176.653 106.256 171.712 109.311 166.195 110.517C164.605 115.776 162.499 120.865 159.907 125.709C161.074 127.531 161.997 129.498 162.654 131.559C167.6 128.859 172.868 126.794 178.332 125.413C189.215 122.682 200.604 122.682 211.487 125.413C217.811 127.009 223.866 129.522 229.462 132.873C241.947 140.331 251.697 151.614 257.264 165.05C262.831 178.485 263.919 193.357 260.367 207.46C258.771 213.784 256.258 219.84 252.907 225.435C247.155 235.072 239.098 243.128 229.462 248.881C223.866 252.231 217.811 254.745 211.487 256.341C199.177 259.458 186.237 259.042 174.153 255.14C162.069 251.237 151.33 244.006 143.168 234.277C135.007 224.549 129.754 212.716 128.013 200.137C126.272 187.558 128.112 174.743 133.324 163.163C130.616 162.521 128.038 161.424 125.698 159.918C120.853 162.5 115.769 164.605 110.518 166.206C109.309 171.721 106.253 176.659 101.856 180.201C97.4592 183.743 91.9845 185.678 86.3382 185.685C82.3489 185.69 78.4184 184.723 74.8876 182.866C73.4961 185.391 72.7866 188.235 72.8292 191.118C72.8718 194 73.6648 196.822 75.1303 199.305C76.5957 201.787 78.6829 203.845 81.186 205.275C83.6892 206.705 86.5218 207.459 89.4047 207.46H96.7108C99.1841 222.291 105.012 236.361 113.75 248.597L108.587 253.759C107.048 255.298 105.826 257.125 104.993 259.135C104.16 261.146 103.73 263.301 103.73 265.478C103.729 267.654 104.157 269.81 104.99 271.821C105.822 273.832 107.043 275.659 108.581 277.199C110.12 278.738 111.947 279.96 113.958 280.793C115.968 281.627 118.123 282.056 120.3 282.056C122.477 282.057 124.632 281.629 126.643 280.796C128.654 279.964 130.482 278.743 132.021 277.205L137.184 272.042C149.428 280.772 163.5 286.6 178.332 289.081V296.375C178.337 300.769 180.086 304.98 183.194 308.084C186.303 311.189 190.516 312.933 194.909 312.933C199.302 312.933 203.516 311.189 206.624 308.084C209.733 304.98 211.482 300.769 211.487 296.375V289.069C226.315 286.595 240.384 280.771 252.623 272.042L257.785 277.205C260.896 280.308 265.111 282.051 269.505 282.048C273.899 282.046 278.112 280.3 281.219 277.193C284.326 274.086 286.073 269.872 286.075 265.478C286.077 261.084 284.335 256.869 281.231 253.759L276.068 248.596C284.798 236.357 290.621 222.289 293.096 207.46H300.402C302.581 207.463 304.738 207.036 306.752 206.204C308.766 205.372 310.596 204.152 312.137 202.612C313.679 201.073 314.902 199.244 315.736 197.231C316.571 195.219 317 193.062 317 190.883C317 188.704 316.571 186.547 315.736 184.534C314.902 182.521 313.679 180.693 312.137 179.153C310.596 177.614 308.766 176.393 306.752 175.561C304.738 174.729 302.581 174.302 300.402 174.305Z" fill="#2D3E50"/>
<path d="M74.6093 160.932C74.6093 164.042 75.8445 167.023 78.043 169.222C80.2415 171.42 83.2233 172.655 86.3324 172.655C89.4416 172.655 92.4234 171.42 94.6219 169.222C96.8204 167.023 98.0555 164.042 98.0555 160.932V155.766C108.541 154.016 118.49 149.898 127.145 143.725L130.796 147.376C131.885 148.464 133.177 149.328 134.6 149.917C136.022 150.506 137.547 150.809 139.086 150.809C140.626 150.809 142.15 150.506 143.573 149.917C144.995 149.328 146.287 148.464 147.376 147.376C148.465 146.287 149.328 144.995 149.917 143.572C150.507 142.15 150.81 140.625 150.81 139.086C150.81 137.546 150.507 136.022 149.917 134.599C149.328 133.177 148.465 131.884 147.376 130.796L143.725 127.145C149.898 118.49 154.016 108.541 155.766 98.055H160.933C164.042 98.055 167.024 96.8199 169.222 94.6214C171.421 92.4229 172.656 89.4411 172.656 86.3319C172.656 83.2227 171.421 80.2409 169.222 78.0423C167.024 75.8438 164.042 74.6087 160.933 74.6087H155.774C154.019 64.1202 149.899 54.1692 143.725 45.5106L147.376 41.8597C149.572 39.6605 150.805 36.6793 150.804 33.5714C150.803 30.4634 149.568 27.483 147.371 25.2854C145.173 23.0877 142.192 21.8526 139.084 21.8516C135.977 21.8506 132.995 23.0838 130.796 25.28L127.145 28.9309C118.49 22.7577 108.541 18.6395 98.0554 16.8896V11.7231C98.0554 8.61391 96.8203 5.63211 94.6218 3.43361C92.4233 1.2351 89.4415 0 86.3324 0C83.2232 0 80.2414 1.2351 78.0429 3.43361C75.8444 5.63211 74.6093 8.61391 74.6093 11.7231V16.8812C64.1207 18.6362 54.1695 22.757 45.5108 28.9309L41.8599 25.28C40.7713 24.1919 39.479 23.3289 38.0568 22.7403C36.6346 22.1516 35.1105 21.8489 33.5713 21.8492C32.0321 21.8496 30.5081 22.1532 29.0862 22.7426C27.6644 23.3319 26.3725 24.1956 25.2844 25.2843C24.1963 26.3729 23.3333 27.6652 22.7447 29.0873C22.156 30.5095 21.8532 32.0337 21.8536 33.5729C21.854 35.112 22.1576 36.6361 22.747 38.0579C23.3363 39.4798 24.2 40.7716 25.2886 41.8597L28.9396 45.5106C22.7596 54.1668 18.6357 64.1186 16.8817 74.6088H11.7232C8.61398 74.6088 5.63215 75.8439 3.43363 78.0424C1.23511 80.2409 0 83.2228 0 86.332C0 89.4411 1.23511 92.423 3.43363 94.6215C5.63215 96.82 8.61398 98.0551 11.7232 98.0551H16.8897C18.6389 108.543 22.7604 118.492 28.9396 127.145L25.2887 130.796C24.1972 131.883 23.3308 133.175 22.7391 134.598C22.1474 136.021 21.842 137.546 21.8404 139.087C21.8388 140.627 22.141 142.153 22.7297 143.577C23.3184 145.001 24.182 146.295 25.2712 147.385C26.3604 148.474 27.6538 149.339 29.0773 149.928C30.5009 150.517 32.0267 150.82 33.5674 150.82C35.1082 150.819 36.6337 150.514 38.0566 149.923C39.4795 149.332 40.7719 148.466 41.8599 147.376L45.5109 143.725C54.1696 149.899 64.1207 154.019 74.6093 155.774V160.932ZM66.9119 118.916C59.0924 114.245 53.2141 106.917 50.3505 98.2706C47.4869 89.624 47.8292 80.2359 51.3148 71.8208C54.8004 63.4057 61.1968 56.5252 69.3357 52.436C77.4746 48.3468 86.8129 47.3217 95.645 49.548C99.1978 50.4447 102.6 51.8567 105.744 53.7392C112.759 57.9291 118.236 64.2685 121.364 71.8171C124.492 79.3657 125.103 87.7214 123.108 95.6449C122.211 99.1978 120.799 102.6 118.916 105.744C115.685 111.158 111.158 115.684 105.744 118.916C102.6 120.799 99.1978 122.211 95.6449 123.107C90.8152 124.332 85.7914 124.592 80.861 123.873C75.9307 123.154 71.1906 121.469 66.9119 118.916Z" fill="#2E79BD"/>
</mask>
<g mask="url(#mask0_2825_7186)">
<rect x="-84.2593" y="-58.7266" width="518.322" height="444.276" fill="url(#paint0_linear_2825_7186)"/>
</g>
<defs>
<linearGradient id="paint0_linear_2825_7186" x1="63.8328" y1="-7.66032" x2="213.202" y2="297.461" gradientUnits="userSpaceOnUse">
<stop stop-color="#228B22"/>
<stop offset="0.515" stop-color="#20D520"/>
<stop offset="1"/>
</linearGradient>
</defs>
</svg>
