<svg width="377" height="351" viewBox="0 0 377 351" fill="none" xmlns="http://www.w3.org/2000/svg">
<mask id="mask0_2825_7172" style="mask-type:alpha" maskUnits="userSpaceOnUse" x="0" y="0" width="377" height="351">
<path d="M25.079 62.6935C25.079 95.5634 50.2418 122.342 82.5058 125.117C84.2707 123.682 86.3293 122.612 88.4187 121.726C91.5235 120.411 93.7167 119.696 96.2289 117.527C98.7412 115.359 101.721 111.573 104.884 103.779C108.05 95.9841 108.552 91.1712 108.263 87.8638C107.974 84.5564 106.877 82.4591 105.582 79.3064C104.014 75.4936 102.945 71.2777 104.566 66.1092C106.186 60.9409 109.868 55.9851 116.587 49.1779C123.306 42.3709 128.563 38.5011 133.346 36.9233C138.12 35.3479 141.97 36.1321 144.988 37.1673C135.089 14.8501 112.896 -0.00047378 87.7697 1.13365e-08C53.0793 0.000473803 25.079 28.0018 25.079 62.6935ZM94.018 25.0729V62.6935C94.0061 64.3447 93.3405 65.9253 92.1702 67.0885L73.3787 85.9172C67.4549 92.0944 58.318 82.9447 64.5034 77.0292L81.4829 60.0492V25.0729C81.4118 21.6111 84.1667 18.7535 87.6281 18.6825C91.1857 18.6114 94.0891 21.5149 94.018 25.0729ZM203.436 20.907C202.325 21.4874 201.615 22.1437 200.559 24.6532C199.505 27.162 198.073 31.4679 194.414 35.8059C190.755 40.1438 185.084 44.3361 176.039 48.1583C166.993 51.9812 160.012 53.1302 154.346 52.7369C148.68 52.3437 144.578 50.3939 142.031 49.407C139.802 48.6655 139.124 48.2438 137.269 48.855C135.565 49.3336 131.559 51.7919 125.468 57.9633C119.376 64.1349 117.072 68.0222 116.494 69.8629C115.987 71.4763 116.423 72.6627 117.191 74.5271C118.226 77.044 120.26 81.1441 120.753 86.794C121.246 92.4441 120.177 99.3719 116.493 108.451C112.808 117.53 108.71 123.286 104.41 126.998C100.11 130.71 95.798 132.22 93.2701 133.29C90.7429 134.361 90.1886 134.807 89.5608 136.02C88.5611 137.949 87.6893 141.882 87.7604 150.418C87.6893 158.953 88.5587 162.869 89.5608 164.802C90.397 166.415 91.4394 166.804 93.2701 167.581C95.798 168.652 100.11 170.162 104.41 173.874C108.71 177.586 112.808 183.305 116.493 192.384C120.178 201.463 121.246 208.428 120.753 214.078C120.26 219.728 118.226 223.779 117.191 226.295C116.158 228.812 116.136 229.842 116.494 230.972C117.072 232.813 119.376 236.688 125.468 242.859C127.332 244.747 128.973 246.246 130.426 247.487C141.312 242.862 152.97 238.195 162.756 238.195C191.266 238.219 187.855 238.243 216.241 238.195C228.507 238.195 238.167 248.076 238.167 260.121C238.167 261.192 238.119 262.213 237.977 263.243H255.495L305.785 239.995C309.715 237.946 313.936 237.171 318.051 237.448C319.26 235.617 320.64 234.163 321.1 231.621C321.218 230.536 320.839 229.448 319.716 226.663C318.593 223.877 316.958 219.723 316.839 214.31C316.721 208.897 317.993 202.371 321.516 194.098C325.356 185.083 329.589 179.426 333.917 175.771C338.245 172.116 342.466 170.646 344.922 169.528C347.377 168.409 348.046 167.808 348.815 166.235C349.983 163.847 350.888 159.469 350.983 150.466C350.959 147.677 350.888 145.35 350.689 143.341L276.724 217.457C274.395 219.757 270.665 219.904 268.191 217.762L262.009 212.375C235.76 230.458 200.58 230.121 174.614 210.895C147 190.448 136.763 153.761 149.762 121.954C162.762 90.1478 195.734 71.1735 229.764 75.9229C259.522 80.0766 283.558 101.483 291.659 129.63L327.674 93.6376L318.371 84.3458C315.502 81.4771 316.073 76.6796 319.534 74.5641C320.417 72.3371 321.242 70.7414 321.052 69.1162C320.839 67.285 319.24 63.8155 311.663 56.3966C305.466 50.3295 301.591 48.0401 299.727 47.4596C297.862 46.8792 297.262 47.3175 294.952 48.1088C292.422 49.1417 288.381 51.1563 282.723 51.6467C277.064 52.1371 270.066 51.1279 260.957 47.4599C251.847 43.7921 246.13 39.6638 242.398 35.3889C238.665 31.114 237.104 26.8613 236.008 24.3708C235.261 22.6817 234.702 21.4301 233.094 20.6246C231.351 19.7528 227.61 18.7768 218.235 18.777C209.545 18.8483 205.14 19.9238 203.436 20.907ZM376.072 81.4702L336.886 85.0816L340.999 89.1952C343.462 91.6457 343.462 95.6326 340.999 98.0831L277.108 161.89C274.799 164.181 271.118 164.327 268.637 162.222L211.589 113.913L157.896 138.312C155.978 148 156.371 157.869 158.936 167.143L200.804 147.592C203.042 146.542 205.69 146.907 207.561 148.523L272.015 204.458L359.557 116.681C362.006 114.225 365.984 114.225 368.433 116.681L372.509 120.757L376.072 81.4702ZM163.515 121.968L210.01 100.813C212.225 99.8016 214.827 100.164 216.682 101.744L272.334 148.939L281.185 140.063C276.752 113.364 255.337 92.1345 228.055 88.3267C224.503 87.834 220.969 87.6444 217.478 87.7387C194.749 88.4205 173.955 101.453 163.515 121.968ZM202.42 160.69L163.528 178.846C167.828 187.291 174.044 194.872 182.062 200.809C202.853 216.204 230.581 217.108 252.135 203.845L202.42 160.69ZM316.662 249.925C314.852 249.878 312.98 250.295 311.3 251.247L259.48 275.242C258.653 275.628 257.746 275.801 256.835 275.794H232.033C231.891 275.794 231.797 275.746 231.666 275.746C227.697 279.666 222.226 282.063 216.254 282.063H175.317C166.957 282.063 166.957 269.515 175.317 269.515H216.254C221.57 269.515 225.643 265.222 225.643 260.126C225.643 255.029 221.57 250.736 216.254 250.736C187.877 250.783 191.286 250.759 162.769 250.736C155.455 250.736 144.795 254.962 133.804 259.66C122.814 264.358 111.491 269.564 100.078 269.564V338.464H106.554C116.965 338.464 139.827 341.669 162.683 344.805C174.111 346.374 185.353 347.935 194.512 349.102C203.671 350.27 211.125 351 213.34 351C218.118 351 228.981 346.305 240.786 338.317C252.592 330.33 265.769 319.504 278.026 308.617C302.542 286.843 323.37 264.936 323.37 264.936C326.847 261.46 326.303 256.993 324.02 253.649C322.527 251.372 319.68 250.02 316.662 249.925ZM0 256.976V344.754H87.542V256.976H0Z" fill="black"/>
</mask>
<g mask="url(#mask0_2825_7172)">
<rect x="-124.134" y="-92.0312" width="674.177" height="693.439" fill="url(#paint0_linear_2825_7172)"/>
</g>
<defs>
<linearGradient id="paint0_linear_2825_7172" x1="49.2256" y1="8.56027" x2="272.881" y2="348.859" gradientUnits="userSpaceOnUse">
<stop stop-color="#228B22"/>
<stop offset="0.495" stop-color="#19D319"/>
<stop offset="1"/>
</linearGradient>
</defs>
</svg>
