<svg width="1074" height="1074" viewBox="0 0 1074 1074" fill="none" xmlns="http://www.w3.org/2000/svg">
<path d="M1011.58 527.515C1006.34 527.515 1002.09 531.762 1002.09 537C1002.09 793.452 793.453 1002.09 537 1002.09C531.762 1002.09 527.516 1006.34 527.516 1011.58C527.516 1016.81 531.762 1021.06 537 1021.06C666.296 1021.06 787.856 970.708 879.281 879.283C970.709 787.855 1021.06 666.298 1021.06 537.002C1021.06 531.762 1016.81 527.515 1011.58 527.515Z" fill="white"/>
<path d="M537 71.9078C542.238 71.9078 546.484 67.661 546.484 62.4234C546.484 57.1858 542.238 52.939 537 52.939C407.704 52.939 286.144 103.289 194.719 194.717C103.291 286.145 52.941 407.702 52.941 536.998C52.941 542.236 57.1878 546.482 62.4255 546.482C67.6631 546.482 71.9099 542.236 71.9099 536.998C71.9077 280.548 280.547 71.9078 537 71.9078Z" fill="white"/>
<path d="M302.442 527.515C297.204 527.515 292.958 531.762 292.958 537C292.958 671.565 402.435 781.042 537 781.042C542.238 781.042 546.484 776.795 546.484 771.558C546.484 766.32 542.238 762.073 537 762.073C412.894 762.073 311.926 661.105 311.926 537C311.926 531.762 307.68 527.515 302.442 527.515Z" fill="white"/>
<path d="M976.549 228.53L1041.84 163.242C1044.22 160.861 1045.16 157.395 1044.31 154.134C1043.46 150.876 1040.94 148.314 1037.7 147.402L954.617 124.056L931.271 40.975C930.361 37.7324 927.799 35.2174 924.541 34.3649C921.285 33.5147 917.817 34.4542 915.434 36.8331L850.948 101.318C759.148 35.0166 650.786 0 537 0C393.562 0 258.711 55.8578 157.283 157.283C55.8578 258.711 0 393.562 0 537C0 680.438 55.8578 815.289 157.283 916.717C258.711 1018.14 393.562 1074 537 1074C680.438 1074 815.289 1018.14 916.717 916.717C1018.14 815.289 1074 680.438 1074 537C1074 425.657 1040.32 319.188 976.549 228.53ZM1016.97 161.282L957.473 220.78L957.469 220.782L896.632 281.619L829.368 262.717L949.705 142.38L1016.97 161.282ZM514.969 533.079L545.092 563.204C546.871 564.982 549.283 565.982 551.798 565.982H551.802C553.69 565.982 555.52 565.418 557.065 564.384C557.58 564.041 558.064 563.643 558.508 563.197L594.855 526.775C595.446 530.129 595.743 533.543 595.743 537.004C595.743 569.399 569.39 595.752 536.996 595.752C504.601 595.752 478.248 569.399 478.248 537.004C478.248 504.61 504.601 478.257 536.996 478.257C542.713 478.257 548.388 479.096 553.829 480.723L514.958 519.676C511.265 523.376 511.269 529.377 514.969 533.079ZM537 459.283C494.146 459.283 459.283 494.146 459.283 537C459.283 579.854 494.146 614.717 537 614.717C579.854 614.717 614.717 579.854 614.717 537C614.717 528.154 613.224 519.535 610.316 511.285L684.872 436.572C705.125 466.246 715.774 500.745 715.774 537.002C715.774 635.578 635.576 715.776 537 715.776C438.424 715.776 358.226 635.58 358.226 537.002C358.226 438.424 438.422 358.228 537 358.228C574.739 358.228 611.641 370.275 642.03 392.339L568.515 466.01C558.627 461.618 547.873 459.283 537 459.283ZM537 339.257C427.965 339.257 339.257 427.965 339.257 537C339.257 646.035 427.965 734.743 537 734.743C646.035 734.743 734.743 646.035 734.743 537C734.743 495.672 722.234 456.414 698.485 422.928L749.797 371.509C786.49 418.661 806.583 477.023 806.583 537.002C806.583 685.651 685.649 806.586 537 806.586C388.351 806.586 267.417 685.649 267.417 537C267.417 388.351 388.351 267.417 537 267.417C598.93 267.417 658.796 288.695 706.698 327.537L655.578 378.764C621.512 353.23 579.74 339.257 537 339.257ZM743.819 350.645L592.501 502.28L592.496 502.285L551.791 543.075L535.081 526.364L799.614 261.277L802.076 270.034C802.895 273.243 805.468 275.691 808.641 276.597L815.724 278.588L743.819 350.645ZM720.152 314.053C668.626 271.69 603.945 248.445 537 248.445C377.891 248.445 248.448 377.889 248.448 536.998C248.448 696.107 377.891 825.55 537 825.55C696.109 825.55 825.552 696.107 825.552 536.998C825.552 472.001 803.49 408.788 763.283 357.992L836.653 284.468L892.321 300.112C939.232 370.328 964.012 452.162 964.012 536.998C964.012 772.453 772.455 964.012 536.998 964.012C301.54 964.012 109.986 772.455 109.986 537C109.986 301.545 301.545 109.986 537 109.986C623.625 109.986 706.883 135.741 778.043 184.509L793.727 240.325L720.152 314.053ZM858.621 120.475L858.625 120.47L917.391 61.7046L936.293 128.968L815.956 249.305L801.942 199.432L797.054 182.039L858.621 120.475ZM537 1055.03C251.355 1055.03 18.9689 822.645 18.9689 537C18.9689 251.355 251.355 18.9689 537 18.9689C645.743 18.9689 749.353 52.0997 837.369 114.898L785.57 166.696C711.947 117.161 626.183 91.0171 537 91.0171C291.085 91.0171 91.0171 291.083 91.0171 537C91.0171 782.917 291.083 982.983 537 982.983C782.917 982.983 982.983 782.917 982.983 537C982.983 450.187 958.131 366.385 911.035 294.044L962.941 242.139C1023.22 328.994 1055.03 430.701 1055.03 537C1055.03 822.645 822.645 1055.03 537 1055.03Z" fill="white"/>
</svg>
