<svg width="712" height="735" viewBox="0 0 712 735" fill="none" xmlns="http://www.w3.org/2000/svg">
<path d="M483.052 210.333C480.127 210.35 477.228 209.79 474.521 208.684C471.813 207.578 469.351 205.949 467.274 203.889L302.163 38.7779C298.008 34.5344 295.709 28.8142 295.771 22.8755C295.834 16.9369 298.253 11.2663 302.496 7.11122C306.74 2.95616 312.46 0.656992 318.399 0.719504C324.337 0.782016 330.008 3.20109 334.163 7.44455L499.496 172.556C502.554 175.675 504.625 179.627 505.449 183.917C506.274 188.207 505.816 192.645 504.132 196.676C502.449 200.707 499.615 204.152 495.984 206.581C492.353 209.01 488.087 210.315 483.719 210.333H483.052Z" fill="white"/>
<path d="M219.941 473.444C219.958 470.52 219.397 467.62 218.291 464.913C217.185 462.205 215.556 459.743 213.496 457.667L48.3852 292.555C44.2007 288.371 38.5253 286.02 32.6075 286.02C26.6896 286.02 21.0142 288.371 16.8297 292.555C12.6452 296.74 10.2943 302.415 10.2943 308.333C10.2943 314.251 12.6452 319.926 16.8297 324.111L181.941 490.111C184.007 492.194 186.464 493.847 189.172 494.975C191.88 496.103 194.785 496.684 197.719 496.684C200.652 496.684 203.557 496.103 206.265 494.975C208.973 493.847 211.43 492.194 213.496 490.111C215.665 487.93 217.358 485.323 218.468 482.454C219.577 479.585 220.079 476.517 219.941 473.444Z" fill="white"/>
<path d="M443.719 734.556H23.0519C19.5525 734.686 16.0718 733.988 12.8934 732.518C9.7151 731.048 6.92918 728.848 4.76281 726.096C2.59643 723.345 1.11093 720.121 0.427418 716.686C-0.256091 713.252 -0.118258 709.704 0.829678 706.333L25.9408 617.444C27.285 612.638 30.2082 608.423 34.2395 605.481C38.2707 602.538 43.1753 601.038 48.163 601.222H418.607C423.595 601.038 428.5 602.538 432.531 605.481C436.562 608.423 439.485 612.638 440.83 617.444L465.941 706.333C466.84 709.629 466.966 713.088 466.311 716.441C465.656 719.795 464.237 722.951 462.163 725.667C460.027 728.519 457.236 730.815 454.026 732.362C450.815 733.909 447.28 734.661 443.719 734.556ZM52.163 690.111H414.163L400.83 645.667H64.6074L52.163 690.111Z" fill="white"/>
<path d="M692.163 588.778L381.052 277.667L433.496 225.222L279.052 70.7778L80.3853 269.444L234.385 423.444L286.607 371.444L597.719 682.556C610.219 695.04 627.163 702.052 644.83 702.052C662.496 702.052 679.441 695.04 691.941 682.556C704.32 670.103 711.286 653.271 711.328 635.712C711.37 618.154 704.483 601.288 692.163 588.778ZM143.052 269.444L279.052 134.556L370.385 225.889L234.385 361.667L143.052 269.444ZM660.607 651.667C656.444 655.806 650.812 658.129 644.941 658.129C639.07 658.129 633.438 655.806 629.274 651.667L318.163 340.556L349.496 309.222L660.607 620.333C664.746 624.497 667.07 630.129 667.07 636C667.07 641.871 664.746 647.503 660.607 651.667Z" fill="white"/>
</svg>
