<svg width="650" height="700" viewBox="0 0 650 700" fill="none" xmlns="http://www.w3.org/2000/svg">
<path d="M650 400C650.051 374.966 643.835 350.318 631.92 328.302C620.004 306.285 602.768 287.601 581.783 273.953C560.797 260.304 536.729 252.124 511.773 250.159C486.816 248.195 461.765 252.507 438.902 262.704C416.039 272.901 396.091 288.658 380.878 308.539C365.664 328.419 355.668 351.791 351.801 376.524C347.934 401.258 350.318 426.566 358.737 450.141C367.156 473.717 381.341 494.811 400 511.5V700L500 652.685L600 700V511.5C615.717 497.484 628.296 480.307 636.912 461.092C645.529 441.877 649.989 421.058 650 400ZM550 621L500 597.332L450 621V541.25C482.312 552.92 517.688 552.92 550 541.25V621ZM500 500C480.222 500 460.888 494.135 444.443 483.147C427.998 472.159 415.181 456.541 407.612 438.268C400.043 419.996 398.063 399.889 401.921 380.491C405.78 361.093 415.304 343.275 429.289 329.289C443.275 315.304 461.093 305.78 480.491 301.921C499.889 298.063 519.996 300.043 538.268 307.612C556.541 315.181 572.159 327.998 583.147 344.443C594.135 360.888 600 380.222 600 400C599.97 426.512 589.425 451.931 570.678 470.678C551.931 489.425 526.513 499.97 500 500Z" fill="white"/>
<path d="M300 300H125V350H300V300Z" fill="white"/>
<path d="M375 150H125V200H375V150Z" fill="white"/>
<path d="M50 700C36.7434 699.986 24.0338 694.714 14.66 685.34C5.2862 675.966 0.0138975 663.257 0 650V50C0.0138975 36.7434 5.2862 24.0338 14.66 14.66C24.0338 5.2862 36.7434 0.0138975 50 0H450C463.257 0.0138975 475.966 5.2862 485.34 14.66C494.714 24.0338 499.986 36.7434 500 50V150H450V50H50V650H300V700H50Z" fill="white"/>
</svg>
