<svg width="630" height="630" viewBox="0 0 630 630" fill="none" xmlns="http://www.w3.org/2000/svg">
<path d="M215 215L281.666 281.667H548.333V48.3333C548.333 39.4928 544.821 31.0143 538.57 24.7631C532.319 18.5119 523.84 15 515 15H115C106.159 15 97.6808 18.5119 91.4296 24.7631C85.1784 31.0143 81.6665 39.4928 81.6665 48.3333V215H215Z" stroke="white" stroke-width="29.6" stroke-linecap="round" stroke-linejoin="round"/>
<path d="M415 548.333L481.667 615L615 481.667" stroke="white" stroke-width="29.6" stroke-linecap="round" stroke-linejoin="round"/>
<path d="M281.667 615H48.3333C39.4928 615 31.0143 611.488 24.7631 605.237C18.5119 598.986 15 590.507 15 581.667V248.333C15 239.493 18.5119 231.014 24.7631 224.763C31.0143 218.512 39.4928 215 48.3333 215H215L281.667 281.667H581.667C590.507 281.667 598.986 285.179 605.237 291.43C611.488 297.681 615 306.159 615 315V348.333" stroke="white" stroke-width="29.6" stroke-linecap="round" stroke-linejoin="round"/>
</svg>
