<svg width="633" height="800" viewBox="0 0 633 800" fill="none" xmlns="http://www.w3.org/2000/svg">
<path d="M316.031 800C312.502 800 308.969 799.035 305.85 797.106C298.342 792.469 121.161 681.53 50.2339 510.66C-20.1855 341.017 3.67504 98.5569 4.72492 88.3177C5.30603 82.6344 8.36657 77.5012 13.0891 74.2818C17.8155 71.0663 23.7157 70.0978 29.2131 71.6397C29.6121 71.7482 71.4678 83.2155 122.137 83.2155C139.756 83.2155 156.504 81.8324 171.919 79.0973C255.235 64.3332 300.353 7.96901 300.799 7.40339C304.471 2.73124 310.085 0 316.031 0C321.978 0 327.588 2.73124 331.264 7.40339C331.679 7.92639 377.509 64.4571 460.152 79.1051C475.563 81.8363 492.307 83.2232 509.93 83.2232C560.603 83.2232 602.459 71.7598 602.873 71.6397C608.359 70.1172 614.263 71.078 618.985 74.3012C623.696 77.5167 626.761 82.646 627.342 88.3216C628.392 98.5608 652.252 341.021 581.833 510.663C510.902 681.534 333.724 792.473 326.216 797.11C323.094 799.035 319.561 800 316.031 800ZM41.5714 114.108C37.4842 177.22 31.1617 363.673 86.015 495.81C142.732 632.446 277.852 731.483 316.031 757.439C354.211 731.479 489.331 632.442 546.048 495.81C600.959 363.529 594.602 177.193 590.503 114.108C571.598 117.745 542.623 121.964 509.926 121.964C490.044 121.964 471.022 120.38 453.383 117.253C384.75 105.089 338.342 69.0092 316.031 47.6397C293.724 69.0092 247.317 105.089 178.683 117.253C161.045 120.38 142.023 121.964 122.141 121.964C89.4474 121.96 60.477 117.741 41.5714 114.108ZM316.031 527.012C286.949 527.012 263.293 503.353 263.293 474.274V408.62C233.637 390.319 215.239 357.672 215.534 322.282C215.971 269.342 257.68 225.635 310.476 222.78C368.432 219.649 416.537 265.875 416.537 323.134C416.537 358.16 398.147 390.474 368.773 408.616V474.274C368.769 503.353 345.11 527.012 316.031 527.012ZM316.035 261.366C314.885 261.366 313.73 261.397 312.568 261.459C280.688 263.183 254.538 290.611 254.271 322.6C254.065 347.002 268.345 369.286 290.645 379.374C297.579 382.512 302.03 389.416 302.03 397.025V474.27C302.03 481.987 308.31 488.267 316.028 488.267C323.745 488.267 330.025 481.987 330.025 474.27V397.025C330.025 389.416 334.476 382.512 341.411 379.374C363.508 369.379 377.788 347.301 377.788 323.126C377.792 289.073 350.089 261.366 316.035 261.366Z" fill="white"/>
</svg>
