<svg width="835" height="1156" viewBox="0 0 835 1156" fill="none" xmlns="http://www.w3.org/2000/svg">
<path d="M132.511 463.901L126.051 456.883L117.959 461.935L77.1225 487.431L39.7003 427.624L80.5028 402.204L88.5772 397.173L85.1492 388.299C73.4768 358.082 68.4126 326.63 69.4516 295.499L69.7673 286.04L60.5457 283.91L13.807 273.117L29.7556 204.455L76.5339 215.272L85.8047 217.416L89.646 208.71C102.17 180.326 120.719 154.168 144.411 132.289L151.406 125.829L146.365 117.752L120.881 76.9133L180.414 39.5988L205.933 80.4472L210.967 88.5049L219.83 85.0817C249.966 73.4417 281.589 68.2789 312.467 69.4764L321.971 69.845L324.116 60.5791L334.951 13.7841L403.643 29.6013L392.844 76.3251L390.712 85.5488L399.354 89.4132C427.718 102.096 453.683 120.485 475.747 144.165L482.215 151.106L490.259 146.075L531.013 120.586L568.472 180.345L527.576 205.726L519.478 210.751L522.913 219.641C534.558 249.784 539.79 281.405 538.612 312.346L538.25 321.845L547.511 323.988L594.183 334.787L578.271 403.521L531.591 392.716L522.298 390.565L518.467 399.3C506.044 427.619 487.476 453.777 463.756 475.735L456.761 482.21L461.825 490.284L487.403 531.07L427.677 568.417L402.26 527.589L397.22 519.494L388.332 522.948C358.132 534.682 326.616 539.832 295.725 538.539L286.19 538.14L284.04 547.438L273.207 594.279L204.612 578.366L215.331 531.637L217.451 522.392L208.779 518.551C180.474 506.013 154.359 487.637 132.511 463.901ZM208.962 152.001L208.952 152.007L208.942 152.014C125.129 204.476 99.5039 315.186 151.964 399.075L151.969 399.083C204.566 483.035 315.158 508.679 399.084 456.182C483.048 403.795 508.701 293.038 456.158 209.128C403.722 125.009 293.131 99.5599 208.962 152.001Z" stroke="white" stroke-width="23"/>
<path d="M802.879 578.648L798.127 579.277L797.866 584.063C796.99 600.144 792.719 616.417 785.203 631.675L783.098 635.949L786.891 638.831L807.036 654.137L784.446 683.698L764.361 668.295L760.567 665.385L756.998 668.566C744.376 679.817 729.892 688.157 714.573 693.238L710.034 694.743L710.663 699.483L713.983 724.524L677.15 729.376L673.813 704.4L673.179 699.651L668.394 699.394C652.164 698.524 636.09 694.281 621.118 686.711L616.842 684.549L613.925 688.35L598.481 708.476L568.898 685.895L584.284 665.806L587.187 662.015L584.013 658.449C572.775 645.821 564.574 631.431 559.327 615.957L557.801 611.455L553.089 612.083L528.009 615.427L523.095 578.57L548.175 575.227L552.918 574.594L553.182 569.817C554.079 553.617 558.35 537.423 565.911 522.314L568.053 518.033L564.246 515.13L544.107 499.78L566.568 470.278L586.7 485.673L590.501 488.579L594.066 485.389C606.613 474.16 621.149 465.84 636.492 460.7L641.012 459.185L640.386 454.46L637.069 429.435L673.962 424.422L677.275 449.461L677.9 454.182L682.654 454.472C698.875 455.46 714.902 459.682 730.145 467.197L734.414 469.301L737.298 465.516L752.596 445.44L782.151 468.009L766.734 488.015L763.811 491.808L766.994 495.386C778.217 507.998 786.517 522.517 791.721 537.889L793.245 542.391L797.957 541.765L822.998 538.439L827.913 575.333L802.879 578.648ZM626.25 641.368L626.252 641.37C661.887 668.542 712.829 661.831 740.043 626.178C767.224 590.6 760.351 539.681 724.803 512.454C689.237 485.177 638.353 492.019 611.02 527.674L611.015 527.681L611.009 527.688C583.904 563.273 590.669 614.212 626.25 641.368Z" stroke="white" stroke-width="11.5599"/>
<path d="M535.421 834.589L541.581 837.157L546.316 832.455L625.632 753.692C625.385 791.356 611.216 828.822 582.493 857.458C535.741 903.853 465.988 912.004 410.239 883.17L403.772 879.826L398.603 884.952L135.394 1145.97C135.209 1145.99 134.931 1146.01 134.538 1146C132.881 1145.95 130.213 1145.38 126.597 1143.81C119.421 1140.71 110.428 1134.54 101.721 1125.8L101.707 1125.78L101.692 1125.77C92.9931 1117.1 86.8375 1108.13 83.7419 1100.97C82.1818 1097.36 81.6116 1094.7 81.5596 1093.04C81.5497 1092.73 81.5581 1092.49 81.5728 1092.31L86.8473 1087.04L86.7961 1086.94L344.983 830.978L350.172 825.834L346.848 819.327C318.388 763.621 327.021 693.761 373.759 647.384L373.761 647.382C402.506 618.839 440.074 604.9 477.739 604.924L398.554 683.633L393.826 688.333L396.346 694.505L435.167 789.593L436.739 793.443L440.577 795.043L535.421 834.589Z" stroke="white" stroke-width="20"/>
</svg>
