<svg width="800" height="800" viewBox="0 0 800 800" fill="none" xmlns="http://www.w3.org/2000/svg">
<path d="M800 40.6048C800 18.2151 781.785 0 759.395 0H427.646C416.973 0 407.255 4.14514 400 10.9028C392.745 4.14514 383.027 0 372.354 0H40.6048C18.2151 0 0 18.2151 0 40.6048V372.354C0 383.027 4.14514 392.745 10.9028 400C4.14514 407.255 0 416.973 0 427.646V759.395C0 781.785 18.2151 800 40.6048 800H372.354C383.027 800 392.745 795.855 400 789.097C407.255 795.855 416.973 800 427.646 800H759.395C781.785 800 800 781.785 800 759.395V427.646C800 416.973 795.855 407.255 789.097 400C795.855 392.745 800 383.027 800 372.354V40.6048ZM427.646 25.9179H759.395C767.494 25.9179 774.082 32.5063 774.082 40.6048V372.354C774.082 380.453 767.494 387.041 759.395 387.041H646.977C639.889 387.041 634.125 381.275 634.125 374.189V367.753C634.125 363.533 636.506 359.44 640.658 356.525C666.915 338.082 679.825 306.835 674.352 274.979C668.746 242.355 643.318 215.91 611.07 209.175C586.322 204.005 561.066 210.03 541.787 225.698C522.505 241.368 511.447 264.594 511.447 289.417C511.447 316.311 524.691 341.526 546.875 356.867C550.714 359.521 552.916 363.454 552.916 367.656V374.187C552.916 381.275 547.15 387.039 540.064 387.039H412.959V259.934C412.959 238.557 395.568 221.166 374.189 221.166H367.658C355.01 221.166 343.006 227.603 335.551 238.383C325.049 253.569 307.803 262.635 289.417 262.635C272.432 262.635 256.539 255.065 245.811 241.864C234.927 228.473 230.927 211.554 234.545 194.225C239.051 172.646 257.483 154.949 279.366 151.191C301.254 147.426 322.689 156.266 335.312 174.239C343.15 185.394 354.972 191.793 367.751 191.793H374.189C395.568 191.793 412.959 174.402 412.959 153.023V40.6048C412.959 32.5063 419.547 25.9179 427.646 25.9179ZM25.9179 40.6048C25.9179 32.5063 32.5063 25.9179 40.6048 25.9179H372.354C380.453 25.9179 387.041 32.5063 387.041 40.6048V153.023C387.041 160.111 381.277 165.875 374.189 165.875H367.751C363.532 165.875 359.438 163.494 356.524 159.343C338.082 133.087 306.842 120.168 274.979 125.648C242.353 131.25 215.908 156.681 209.173 188.928C204.003 213.679 210.027 238.932 225.697 258.213C241.368 277.495 264.593 288.553 289.417 288.553C316.311 288.553 341.527 275.309 356.867 253.125C359.523 249.286 363.456 247.084 367.658 247.084H374.189C381.277 247.084 387.041 252.85 387.041 259.936V387.041H259.936C238.557 387.041 221.166 404.432 221.166 425.811V432.342C221.166 444.992 227.603 456.995 238.383 464.449C253.569 474.951 262.635 492.197 262.635 510.583C262.635 527.568 255.065 543.463 241.864 554.189C228.473 565.071 211.556 569.075 194.224 565.453C172.646 560.949 154.949 542.518 151.19 520.632C147.432 498.749 156.263 477.311 174.238 464.686C185.393 456.85 191.791 445.026 191.791 432.249V425.813C191.793 404.432 174.402 387.041 153.023 387.041H40.6048C32.5063 387.041 25.9179 380.453 25.9179 372.354V40.6048ZM372.354 774.082H40.6048C32.5063 774.082 25.9179 767.494 25.9179 759.395V427.646C25.9179 419.547 32.5063 412.959 40.6048 412.959H153.023C160.111 412.959 165.875 418.725 165.875 425.811V432.247C165.875 436.467 163.494 440.56 159.342 443.475C133.085 461.918 120.175 493.163 125.647 525.018C131.252 557.645 156.683 584.09 188.926 590.823C194.739 592.036 200.575 592.634 206.359 592.634C225.206 592.634 243.457 586.293 258.21 574.303C277.495 558.633 288.553 535.407 288.553 510.583C288.553 483.689 275.307 458.473 253.123 443.133C249.286 440.479 247.084 436.546 247.084 432.344V425.813C247.084 418.725 252.848 412.961 259.936 412.961H387.041V540.066C387.041 561.443 404.434 578.834 425.811 578.834H432.247C445.026 578.834 456.85 572.435 464.684 561.279C477.311 543.304 498.747 534.474 520.632 538.232C542.518 541.992 560.949 559.689 565.453 581.268C569.073 598.597 565.071 615.516 554.187 628.907C543.461 642.106 527.568 649.676 510.583 649.676C492.197 649.676 474.951 640.61 464.449 625.422C456.993 614.644 444.992 608.207 432.342 608.207H425.811C404.434 608.207 387.041 625.598 387.041 646.977V759.395C387.041 767.494 380.453 774.082 372.354 774.082ZM774.082 759.395C774.082 767.494 767.494 774.082 759.395 774.082H427.646C419.547 774.082 412.959 767.494 412.959 759.395V646.977C412.959 639.889 418.725 634.125 425.811 634.125H432.342C436.544 634.125 440.477 636.327 443.131 640.164C458.473 662.35 483.689 675.594 510.583 675.594C535.406 675.594 558.632 664.536 574.302 645.253C589.972 625.975 595.993 600.722 590.825 575.969C584.092 543.724 557.648 518.293 525.023 512.688C493.163 507.2 461.92 520.124 443.476 546.381C440.56 550.533 436.468 552.914 432.247 552.914H425.811C418.723 552.914 412.959 547.148 412.959 540.062V412.959H540.064C561.441 412.959 578.834 395.568 578.834 374.189V367.658C578.834 355.008 572.397 343.005 561.617 335.551C546.431 325.049 537.365 307.803 537.365 289.417C537.365 272.432 544.935 256.539 558.134 245.813C571.525 234.927 588.446 230.929 605.773 234.545C627.352 239.051 645.049 257.483 648.809 279.366C652.568 301.249 643.737 322.689 625.761 335.314C614.606 343.152 608.207 354.974 608.207 367.753V374.189C608.207 395.568 625.6 412.959 646.977 412.959H759.395C767.494 412.959 774.082 419.547 774.082 427.646V759.395Z" fill="white"/>
</svg>
