<svg width="879" height="878" viewBox="0 0 879 878" fill="none" xmlns="http://www.w3.org/2000/svg">
<path fill-rule="evenodd" clip-rule="evenodd" d="M848.224 605.517H30.7759V469.276C30.7759 460.92 23.9941 454.138 15.6379 454.138C7.28179 454.138 0.5 460.92 0.5 469.276C0.5 554.82 0.5 638.124 0.5 681.207C0.5 693.257 5.28359 704.807 13.8062 713.314C22.3138 721.837 33.864 726.621 45.9138 726.621H106.466C114.822 726.621 121.603 719.839 121.603 711.483C121.603 703.127 114.822 696.345 106.466 696.345H45.9138C41.9022 696.345 38.0421 694.755 35.2113 691.909C32.3653 689.079 30.7759 685.218 30.7759 681.207V635.793H848.224V681.207C848.224 685.218 846.635 689.079 843.789 691.909C840.958 694.755 837.098 696.345 833.086 696.345H167.017C158.661 696.345 151.879 703.127 151.879 711.483C151.879 719.839 158.661 726.621 167.017 726.621H357.846C355.424 767.221 344.903 819.674 306.12 847.724H280.552C272.196 847.724 265.414 854.506 265.414 862.862C265.414 871.218 272.196 878 280.552 878H598.448C606.804 878 613.586 871.218 613.586 862.862C613.586 854.506 606.804 847.724 598.448 847.724H572.88C534.097 819.658 523.576 767.221 521.154 726.621H833.086C845.136 726.621 856.686 721.837 865.194 713.314C873.716 704.807 878.5 693.257 878.5 681.207C878.5 589.955 878.5 318.32 878.5 227.069C878.5 215.019 873.716 203.469 865.194 194.961C856.686 186.439 845.136 181.655 833.086 181.655H666.569C658.213 181.655 651.431 188.437 651.431 196.793C651.431 205.149 658.213 211.931 666.569 211.931H833.086C837.098 211.931 840.958 213.521 843.789 216.366C846.635 219.197 848.224 223.057 848.224 227.069V605.517ZM490.878 726.621H388.122C385.775 764.935 376.239 812.604 348.99 847.724H530.01C502.761 812.604 493.225 764.92 490.878 726.621ZM394.086 590.379H492.483C500.839 590.379 507.621 583.598 507.621 575.241C507.621 566.885 500.839 560.103 492.483 560.103H394.086C385.73 560.103 378.948 566.885 378.948 575.241C378.948 583.598 385.73 590.379 394.086 590.379ZM61.0517 529.828V560.103C61.0517 568.46 67.8335 575.241 76.1897 575.241C84.5458 575.241 91.3276 568.46 91.3276 560.103V529.828C91.3276 521.471 84.5458 514.69 76.1897 514.69C67.8335 514.69 61.0517 521.471 61.0517 529.828ZM371.379 544.966H515.19C523.546 544.966 530.328 538.184 530.328 529.828C530.328 521.471 523.546 514.69 515.19 514.69H371.379C363.023 514.69 356.241 521.471 356.241 529.828C356.241 538.184 363.023 544.966 371.379 544.966ZM409.239 499.552H357.679C353.728 499.552 349.944 498.008 347.113 495.253C296.492 445.948 242.707 370.032 242.707 271.877C242.707 163.611 330.87 75.6897 439.5 75.6897C548.13 75.6897 636.293 163.611 636.293 271.877C636.293 370.032 582.508 445.948 531.887 495.253C529.056 498.008 525.271 499.552 521.32 499.552H469.776C469.776 499.552 454.638 499.506 454.638 484.414V317.897H424.362V484.399C424.362 494.269 417.595 499.552 409.239 499.552ZM91.3276 484.414V287.621C91.3276 279.265 84.5458 272.483 76.1897 272.483C67.8335 272.483 61.0517 279.265 61.0517 287.621V484.414C61.0517 492.77 67.8335 499.552 76.1897 499.552C84.5458 499.552 91.3276 492.77 91.3276 484.414ZM484.914 469.276C498.099 469.276 515.114 469.276 515.114 469.276C559.635 424.634 606.017 357.861 606.017 271.877C606.017 180.293 531.387 105.966 439.5 105.966C347.613 105.966 272.983 180.293 272.983 271.877C272.983 357.861 319.365 424.634 363.886 469.276H394.086V317.897H363.81C330.386 317.897 303.259 290.769 303.259 257.345C303.259 223.92 330.386 196.793 363.81 196.793C397.235 196.793 424.362 223.92 424.362 257.345V287.621H454.638V257.345C454.638 223.92 481.765 196.793 515.19 196.793C548.614 196.793 575.741 223.92 575.741 257.345C575.741 290.769 548.614 317.897 515.19 317.897H484.914V469.276ZM212.431 181.655H45.9138C33.864 181.655 22.3138 186.439 13.8062 194.961C5.28359 203.469 0.5 215.019 0.5 227.069C0.5 265.05 0.5 334.261 0.5 408.724C0.5 417.08 7.28179 423.862 15.6379 423.862C23.9941 423.862 30.7759 417.08 30.7759 408.724V227.069C30.7759 223.057 32.3653 219.197 35.2113 216.366C38.0421 213.521 41.9022 211.931 45.9138 211.931H212.431C220.787 211.931 227.569 205.149 227.569 196.793C227.569 188.437 220.787 181.655 212.431 181.655ZM484.914 287.621H515.19C531.902 287.621 545.466 274.057 545.466 257.345C545.466 240.633 531.902 227.069 515.19 227.069C498.477 227.069 484.914 240.633 484.914 257.345V287.621ZM394.086 287.621V257.345C394.086 240.633 380.523 227.069 363.81 227.069C347.098 227.069 333.534 240.633 333.534 257.345C333.534 274.057 347.098 287.621 363.81 287.621H394.086ZM356.105 63.7004L340.967 37.4815C336.789 30.2456 327.525 27.763 320.289 31.941C313.053 36.1191 310.57 45.3835 314.748 52.6194L329.886 78.8383C334.064 86.0743 343.329 88.5569 350.565 84.3788C357.801 80.2008 360.283 70.9363 356.105 63.7004ZM549.114 78.8383L564.252 52.6194C568.43 45.3835 565.947 36.1191 558.711 31.941C551.475 27.763 542.211 30.2456 538.033 37.4815L522.895 63.7004C518.717 70.9363 521.199 80.2008 528.435 84.3788C535.671 88.5569 544.936 86.0743 549.114 78.8383ZM454.638 45.4138V15.1379C454.638 6.78179 447.856 0 439.5 0C431.144 0 424.362 6.78179 424.362 15.1379V45.4138C424.362 53.7699 431.144 60.5517 439.5 60.5517C447.856 60.5517 454.638 53.7699 454.638 45.4138Z" fill="white"/>
</svg>
