<svg width="667" height="800" viewBox="0 0 667 800" fill="none" xmlns="http://www.w3.org/2000/svg">
<path d="M648.212 466.014C645.562 465.287 642.902 464.523 640.239 463.75C657.822 422.542 666.727 378.77 666.727 333.359C666.728 149.544 517.181 0 333.364 0C149.547 0 0 149.544 0 333.361C0 517.178 149.545 666.725 333.364 666.725C334.672 666.725 336.031 666.709 337.422 666.689C352.2 700.219 372.586 725.667 391.059 743.766C430.211 782.128 472.388 800 488.566 800C504.744 800 546.92 782.127 586.073 743.767C620.069 710.458 660.594 652.322 660.594 564.536V482.245C660.594 474.662 655.525 468.017 648.212 466.014ZM316.534 36.225V222.956C279.028 223.538 241.717 226.063 206.564 230.489C213.747 188.123 225.402 149.38 241.037 116.827C262.142 72.8828 288.963 44.5406 316.534 36.225ZM316.533 256.612V410.108C276.42 409.481 237.78 406.623 202.266 401.731C199.391 375.906 198.172 351.992 198.172 333.361C198.172 310.066 199.4 287.189 201.789 265.053C237.436 260.123 276.244 257.241 316.533 256.612ZM245.994 46.6609C210.427 88.3484 183.695 155.18 171.62 235.648C116.814 245.005 69.6109 259.428 38.6594 278.748C59.0719 168.338 140.195 78.9656 245.994 46.6609ZM114.319 283.234C130.592 278.417 148.387 274.205 167.392 270.634C165.511 290.902 164.517 311.858 164.517 333.359C164.516 351.319 165.506 372.922 167.788 396.163C148.634 392.577 130.705 388.339 114.319 383.488C54.7828 365.861 33.6578 345.467 33.6578 333.359C33.6578 321.253 54.7813 300.859 114.319 283.234ZM38.6578 387.972C69.6953 407.348 117.081 421.8 172.084 431.152C176.17 458.702 182.092 487.097 190.303 513.448C190.789 515.006 191.284 516.555 191.784 518.097C194.097 525.208 200.694 529.728 207.786 529.728C209.509 529.727 211.262 529.461 212.991 528.898C221.831 526.025 226.667 516.531 223.794 507.694C223.331 506.27 222.875 504.844 222.433 503.423C215.789 482.094 210.738 459.033 207.008 436.287C242.033 440.678 279.187 443.188 316.536 443.764V482.244V564.534C316.536 589.758 319.894 612.52 325.47 632.961C182.378 629.244 63.9422 524.736 38.6578 387.972ZM350.192 36.225C377.767 44.5406 404.584 72.8828 425.689 116.825C441.331 149.395 452.995 188.167 460.173 230.561C425.078 226.148 387.695 223.563 350.192 222.964V36.225ZM350.192 256.622C389.528 257.27 428.67 260.17 464.945 265.128C467.328 287.242 468.555 310.092 468.555 333.359C468.555 356.456 467.308 379.353 464.881 401.673C429.25 406.602 390.459 409.478 350.192 410.108V256.622ZM350.192 443.764C366.873 443.506 383.516 442.861 399.948 441.838C383.675 448.519 367.123 454.489 350.192 459.773V443.764ZM626.937 564.536C626.937 639.655 592.733 689.573 564.039 718.222C530.061 752.145 495.503 765.525 488.564 766.325C481.627 765.523 447.069 752.144 413.089 718.222C384.395 689.572 350.191 639.655 350.191 564.536V494.955C398.695 480.661 444.164 461.247 488.57 435.875C532.003 460.608 579.417 480.847 626.937 494.942V564.536ZM608.023 453.391C583.573 444.763 559.156 434.431 535.787 422.841C573.18 413.959 605.134 402.3 628.12 387.939C623.995 410.417 617.284 432.286 608.023 453.391ZM552.409 383.489C536.116 388.312 518.297 392.528 499.269 396.102C501.208 375.503 502.211 354.503 502.211 333.361C502.211 210.005 469.909 104.302 420.731 46.6609C526.416 78.9281 607.477 168.144 627.998 278.389C619.033 272.847 608.533 267.611 596.484 262.692C587.878 259.178 578.056 263.308 574.544 271.913C571.031 280.517 575.159 290.339 583.766 293.852C620.12 308.689 633.07 323.989 633.07 333.361C633.072 345.469 611.947 365.862 552.409 383.489Z" fill="white" stroke="black" stroke-width="0.008"/>
<path d="M241.134 549.331C236.859 541.076 226.702 537.852 218.452 542.127C210.198 546.398 206.973 556.555 211.247 564.808L211.525 565.336C214.559 570.961 220.319 574.141 226.284 574.141C228.967 574.141 231.692 573.498 234.23 572.144C242.403 567.783 245.486 557.583 241.163 549.389L241.134 549.331Z" fill="white" stroke="black" stroke-width="0.008"/>
<path d="M547.52 246.772L547.017 246.642C537.991 244.405 528.866 249.916 526.636 258.939C524.405 267.958 529.905 277.08 538.928 279.311L539.297 279.406C540.68 279.756 542.067 279.925 543.431 279.925C550.952 279.925 557.795 274.841 559.725 267.213C562.002 258.203 556.531 249.048 547.52 246.772Z" fill="white" stroke="black" stroke-width="0.008"/>
<path d="M418.017 588.269C411.444 581.697 400.789 581.698 394.217 588.27C387.645 594.842 387.645 605.495 394.217 612.069L448.936 666.786C452.222 670.07 456.528 671.716 460.836 671.716C465.144 671.716 469.448 670.072 472.736 666.786L582.914 556.608C589.486 550.036 589.486 539.381 582.914 532.808C576.341 526.236 565.689 526.236 559.114 532.808L460.838 631.084L418.017 588.269Z" fill="white" stroke="black" stroke-width="0.008"/>
</svg>
