<svg width="1064" height="1062" viewBox="0 0 1064 1062" fill="none" xmlns="http://www.w3.org/2000/svg">
<path d="M420.864 1030L264.585 918.375C118.555 814.068 31.8876 645.658 31.8876 466.195V182.827C31.8876 158.017 48.3346 136.214 72.19 129.398L405.598 34.1384C415.575 31.2872 426.154 31.2872 436.128 34.1384L769.537 129.398C793.392 136.214 809.84 158.017 809.84 182.827V279.832M920.976 696.592V585.456C920.976 524.081 871.221 474.32 809.84 474.32C748.46 474.32 698.704 524.081 698.704 585.456V696.592M920.976 696.592H698.704M920.976 696.592C982.357 696.592 1032.11 746.353 1032.11 807.728V918.864C1032.11 980.244 982.357 1030 920.976 1030H698.704C637.324 1030 587.568 980.244 587.568 918.864V807.728C587.568 746.353 637.324 696.592 698.704 696.592" stroke="white" stroke-width="62.6807" stroke-linecap="round" stroke-linejoin="round"/>
</svg>
