<svg width="1269" height="1178" viewBox="0 0 1269 1178" fill="none" xmlns="http://www.w3.org/2000/svg">
<path d="M1178 543.692V815.538H90.6154V90.6154H634.308V0H90.6154C66.5827 0 43.5343 9.54695 26.5406 26.5406C9.54695 43.5343 0 66.5827 0 90.6154V815.538C0 839.571 9.54695 862.62 26.5406 879.613C43.5343 896.607 66.5827 906.154 90.6154 906.154H453.077V1087.38H271.846V1178H996.769V1087.38H815.538V906.154H1178C1202.03 906.154 1225.08 896.607 1242.07 879.613C1259.07 862.62 1268.62 839.571 1268.62 815.538V543.692H1178ZM724.923 1087.38H543.692V906.154H724.923V1087.38Z" fill="white"/>
<path d="M860.846 498.385L634.308 273.658L706.347 202.525L860.846 355.665L1196.58 22.6538L1268.62 94.24L860.846 498.385Z" fill="white"/>
</svg>
