<svg width="677" height="800" viewBox="0 0 677 800" fill="none" xmlns="http://www.w3.org/2000/svg">
<path d="M340.097 165.562C385.815 165.562 422.878 128.499 422.878 82.7808C422.878 37.0622 385.815 0 340.097 0C294.378 0 257.316 37.0622 257.316 82.7808C257.316 128.499 294.378 165.562 340.097 165.562Z" fill="#72D7A5"/>
<path d="M424.833 245.467L591.939 246.258L531.607 416.181C530.527 419.217 532.116 422.55 535.165 423.63C538.201 424.711 541.546 423.128 542.626 420.086L602.372 251.777L662.131 420.086C662.986 422.472 665.231 423.971 667.643 423.971C668.287 423.971 668.949 423.855 669.593 423.63C672.635 422.55 674.23 419.205 673.15 416.175L612.671 245.84C627.787 243.274 639.34 230.19 639.404 214.346C639.482 196.592 625.169 182.145 607.415 182.048L386.649 181.006C378.531 176.195 369.712 172.567 360.732 170.36L340.11 191.118L320.117 170.135C320.046 170.148 319.976 170.155 319.911 170.167C309.684 172.618 299.642 176.883 290.624 182.692C288.61 182.293 286.539 182.061 284.404 182.042L55.5132 180.968C55.4618 180.968 55.4103 180.968 55.3589 180.968C37.6757 180.968 23.3053 195.261 23.2153 212.957C23.1381 230.704 37.4506 245.158 55.2109 245.248L64.4223 245.287L3.74387 416.175C2.66963 419.211 4.25848 422.55 7.30108 423.63C10.3308 424.698 13.6822 423.116 14.7629 420.073L74.5279 251.771L134.28 420.073C135.129 422.472 137.381 423.958 139.786 423.958C140.436 423.958 141.099 423.849 141.742 423.611C144.785 422.53 146.373 419.185 145.293 416.162L84.6528 245.371L255.38 246.181V425.039C255.38 433.691 257.052 441.757 259.998 449.174C259.773 450.84 259.619 452.525 259.619 454.262L259.638 762.016C259.645 782.999 276.646 800 297.622 799.994C318.606 799.994 335.607 782.98 335.6 762.009L335.581 497.901C337.086 497.971 338.585 498.087 340.103 498.087C340.393 498.087 340.689 498.049 340.991 498.049L340.984 762.003C340.984 782.992 357.992 799.987 378.956 799.987C399.939 799.987 416.934 782.973 416.934 762.003L416.947 456.134C421.926 446.91 424.833 436.482 424.833 425.032V245.467ZM339.917 354.962L319.95 327.643L339.917 194.193H340.303L360.263 327.643L340.303 354.962H339.917Z" fill="#72D7A5"/>
<path d="M527.844 431.156C527.844 472.312 561.204 505.684 602.359 505.684C643.515 505.684 676.881 472.312 676.881 431.156H527.844Z" fill="#72D7A5"/>
<path d="M74.5214 505.684C115.677 505.684 149.036 472.312 149.036 431.156H0C0 472.318 33.3529 505.684 74.5214 505.684Z" fill="#72D7A5"/>
</svg>
