<svg width="724" height="800" viewBox="0 0 724 800" fill="none" xmlns="http://www.w3.org/2000/svg">
<path d="M457.144 695.238C457.144 705.752 448.611 714.286 438.095 714.286H285.714C275.2 714.286 266.667 705.752 266.667 695.238C266.667 684.723 275.2 676.189 285.714 676.189H438.095C448.611 676.191 457.144 684.724 457.144 695.238ZM438.095 723.81H285.714C273.181 723.81 263.476 735.916 267.648 749.067C270.162 757 278.19 761.905 286.515 761.905H286.801C297.801 761.905 307.859 768.123 312.782 777.962L312.982 778.363C319.62 791.619 333.172 800 348.001 800H375.811C390.64 800 404.192 791.619 410.821 778.363L411.021 777.962C415.945 768.125 426.001 761.905 437.001 761.905H437.287C445.611 761.905 453.64 757 456.154 749.067C460.333 735.915 450.629 723.81 438.095 723.81ZM361.906 114.286C372.42 114.286 380.954 105.752 380.954 95.2381V19.0476C380.954 8.53361 372.42 0 361.906 0C351.391 0 342.857 8.53361 342.857 19.0476V95.2381C342.857 105.752 351.391 114.286 361.906 114.286ZM159.877 186.81C163.591 190.534 168.468 192.391 173.343 192.391C178.22 192.391 183.095 190.534 186.81 186.81C194.248 179.371 194.248 167.314 186.81 159.877L132.934 106C125.506 98.5616 113.429 98.5616 106.001 106C98.563 113.438 98.563 125.494 106.001 132.933L159.877 186.81ZM114.286 361.905C114.286 351.391 105.752 342.857 95.2381 342.857H19.0476C8.53361 342.857 0 351.391 0 361.905C0 372.419 8.53361 380.952 19.0476 380.952H95.2381C105.754 380.952 114.286 372.419 114.286 361.905ZM159.877 537L106.001 590.877C98.563 598.315 98.563 610.373 106.001 617.81C109.716 621.534 114.591 623.389 119.468 623.389C124.343 623.389 129.22 621.534 132.934 617.81L186.81 563.933C194.248 556.494 194.248 544.438 186.81 537C179.381 529.562 167.305 529.562 159.877 537ZM563.934 537C556.496 529.562 544.438 529.562 537.001 537C529.564 544.438 529.563 556.496 537.001 563.933L590.878 617.81C594.601 621.534 599.469 623.389 604.345 623.389C609.22 623.389 614.087 621.534 617.811 617.81C625.249 610.371 625.249 598.314 617.811 590.877L563.934 537ZM704.762 342.857H628.571C618.057 342.857 609.524 351.391 609.524 361.905C609.524 372.419 618.057 380.952 628.571 380.952H704.762C715.276 380.952 723.81 372.419 723.81 361.905C723.81 351.391 715.276 342.857 704.762 342.857ZM550.466 192.391C555.342 192.391 560.209 190.534 563.933 186.81L617.81 132.933C625.248 125.494 625.248 113.438 617.81 106C610.371 98.5616 598.314 98.5616 590.877 106L537 159.877C529.562 167.315 529.562 179.371 537 186.81C540.716 190.534 545.591 192.391 550.466 192.391ZM457.144 647.619C457.144 658.133 448.611 666.667 438.095 666.667H285.714C275.2 666.667 266.667 658.133 266.667 647.619C266.667 637.476 274.619 629.258 284.619 628.685C272.762 521.504 161.905 497.629 161.905 371.429C161.905 260.972 251.448 171.429 361.905 171.429C472.361 171.429 561.905 260.972 561.905 371.429C561.905 497.627 451.048 521.504 439.19 628.686C449.19 629.258 457.144 637.476 457.144 647.619ZM318.01 224.857C315.048 217.552 306.734 214.038 299.401 216.98C250.724 236.704 213.821 278.866 200.686 329.761C198.714 337.408 203.315 345.189 210.954 347.161C212.144 347.475 213.345 347.618 214.525 347.618C220.887 347.618 226.688 343.342 228.354 336.903C239.231 294.732 269.803 259.798 310.126 243.465C317.438 240.506 320.962 232.181 318.01 224.857Z" fill="#72D7A5"/>
</svg>
