<svg width="184" height="183" viewBox="0 0 184 183" fill="none" xmlns="http://www.w3.org/2000/svg">
<path d="M164.239 86.6746H183.502C183.502 37.2646 146.199 0 96.7217 0V19.2632C135.845 19.2632 164.239 47.6089 164.239 86.6746Z" fill="white"/>
<path d="M96.8166 57.7894C117.072 57.7894 125.711 66.4289 125.711 86.6841H144.975C144.975 55.6223 127.878 38.5262 96.8166 38.5262V57.7894ZM129.776 110.214C127.925 108.532 125.493 107.635 122.993 107.712C120.494 107.789 118.122 108.835 116.378 110.628L93.33 134.332C87.7822 133.272 76.6288 129.795 65.148 118.343C53.6671 106.853 50.1901 95.6704 49.1595 90.1611L72.8436 67.1031C74.6391 65.361 75.6862 62.9887 75.7635 60.4882C75.8408 57.9877 74.9422 55.5552 73.2578 53.7056L37.6691 14.5725C35.9839 12.717 33.6419 11.5915 31.1403 11.4351C28.6387 11.2786 26.1747 12.1035 24.2715 13.7345L3.37098 31.6589C1.70578 33.3301 0.711883 35.5544 0.577815 37.9098C0.433342 40.3177 -2.32129 97.3559 41.907 141.603C80.4911 180.178 128.822 183 142.133 183C144.079 183 145.273 182.942 145.591 182.923C147.946 182.791 150.169 181.793 151.832 180.12L169.747 159.21C171.379 157.308 172.206 154.845 172.051 152.343C171.896 149.842 170.773 147.499 168.919 145.812L129.776 110.214Z" fill="white"/>
</svg>
