<svg width="139" height="130" viewBox="0 0 139 130" fill="none" xmlns="http://www.w3.org/2000/svg">
<path fill-rule="evenodd" clip-rule="evenodd" d="M133.066 43.1018L110.781 26.6357V36.2322L130.929 53.4799V59.1596L104.606 83.381L130.799 121.585L121.298 121.715L98.8049 89.2431L69.3293 113.438L41.0001 89.3647L17.4908 121.724H7.85958L35.0858 83.3897L7.72931 58.8991L7.85958 52.9067L44.9168 19.5491L44.7779 7.7467L6.14002 43.1105C3.02225 43.1105 0 45.6377 0 48.7555V123.869C0 126.995 3.02225 130 6.14002 130H133.083C136.201 130 138.728 126.995 138.728 123.869V48.7555C138.702 45.629 136.183 43.1018 133.066 43.1018Z" fill="white"/>
<path fill-rule="evenodd" clip-rule="evenodd" d="M25.9355 0V60.7923L69.5931 95.5308L112.356 60.7923V26.3231L69.3239 26.2796V0H25.9355ZM95.1085 69.6159H43.0008V60.5231H95.1085V69.6159ZM77.6003 43.4231V52.1077H42.8619V43.4231H77.6003Z" fill="white"/>
<path fill-rule="evenodd" clip-rule="evenodd" d="M78.0088 0V16.9437H111.427L78.0088 0Z" fill="white"/>
</svg>
