<svg width="370" height="307" viewBox="0 0 370 307" fill="none" xmlns="http://www.w3.org/2000/svg">
<mask id="path-1-inside-1_25_3678" fill="white">
<rect x="60" y="129" width="25" height="49" rx="5"/>
</mask>
<rect x="60" y="129" width="25" height="49" rx="5" stroke="white" stroke-width="14" mask="url(#path-1-inside-1_25_3678)"/>
<mask id="path-2-inside-2_25_3678" fill="white">
<rect x="91" y="111" width="28" height="67" rx="5"/>
</mask>
<rect x="91" y="111" width="28" height="67" rx="5" stroke="white" stroke-width="14" mask="url(#path-2-inside-2_25_3678)"/>
<mask id="path-3-inside-3_25_3678" fill="white">
<rect x="125" y="92" width="30" height="86" rx="5"/>
</mask>
<rect x="125" y="92" width="30" height="86" rx="5" stroke="white" stroke-width="14" mask="url(#path-3-inside-3_25_3678)"/>
<mask id="path-4-inside-4_25_3678" fill="white">
<rect x="161" y="81" width="30" height="97" rx="5"/>
</mask>
<rect x="161" y="81" width="30" height="97" rx="5" stroke="white" stroke-width="14" mask="url(#path-4-inside-4_25_3678)"/>
<path d="M118.914 196.16C95.3445 196.16 71.7744 196.16 48.2144 196.16C38.4544 196.16 34.0044 191.73 34.0044 182.05C34.0044 135.28 34.0044 88.52 34.0044 41.75C34.0044 40.13 33.9144 38.5 34.5444 36.95C35.6044 34.32 37.6544 33.02 40.3944 33.2C43.2944 33.39 45.3144 34.97 45.8144 37.96C46.0544 39.42 45.9844 40.94 45.9844 42.44C45.9844 88.21 46.0344 133.97 45.9044 179.74C45.8944 183.39 46.8444 184.22 50.4244 184.21C96.6844 184.08 142.944 184.12 189.214 184.13C190.954 184.13 192.704 183.96 194.404 184.57C197.384 185.65 198.804 187.81 198.444 190.92C198.114 193.86 196.334 195.65 193.364 196.02C192.014 196.19 190.624 196.15 189.254 196.15C165.814 196.15 142.364 196.15 118.924 196.15L118.914 196.16Z" fill="#36A852"/>
<path d="M180.454 48.2491C180.504 53.8291 176.064 56.5991 171.764 54.5791C170.394 53.9391 169.664 53.3591 168.604 55.1491C154.914 78.1191 133.864 92.0491 109.974 102.309C96.0844 108.279 81.6244 112.359 66.5344 113.989C65.4244 114.109 64.3044 114.299 63.1844 114.279C59.6444 114.239 57.1244 111.929 56.9444 108.649C56.7644 105.309 58.8644 102.739 62.4844 102.379C73.9344 101.249 85.0744 98.7591 95.9044 94.9091C116.594 87.5591 135.434 77.2391 150.134 60.4691C152.664 57.5791 154.764 54.3091 157.064 51.2091C157.924 50.0491 158.214 49.2191 156.404 48.4991C153.984 47.5291 152.754 45.4291 152.914 42.8491C153.084 40.1091 154.724 38.2991 157.304 37.3591C160.684 36.1191 164.044 34.7891 167.464 33.6591C171.324 32.3791 174.114 33.5391 175.774 37.1791C177.564 41.1191 179.144 45.1591 180.444 48.2491H180.454Z" fill="#36A852"/>
<path d="M85.0245 89.7499C79.9245 89.7499 74.8245 89.8099 69.7245 89.7299C65.8645 89.6699 63.3145 87.3399 63.1945 83.9899C63.0645 80.5999 65.8245 77.8399 69.7245 77.8099C79.9245 77.7299 90.1245 77.7199 100.314 77.8099C104.174 77.8499 106.544 80.3099 106.554 83.7899C106.554 87.2699 104.184 89.6399 100.324 89.7099C95.2245 89.8099 90.1245 89.7299 85.0245 89.7399V89.7499Z" fill="#36A852"/>
<path d="M84.7844 45.07C79.9344 45.07 75.0844 45.13 70.2344 45.05C65.8244 44.97 63.1444 42.6 63.1944 39.04C63.2344 35.51 65.9644 33.09 70.3444 33.06C80.0444 32.98 89.7444 32.98 99.4444 33.06C104.154 33.1 106.694 35.47 106.564 39.33C106.444 43.01 104.014 44.99 99.3444 45.06C94.4944 45.13 89.6444 45.07 84.7944 45.07H84.7844Z" fill="#37A852"/>
<path d="M84.5744 74.8185C79.6044 74.8185 74.6244 74.8885 69.6544 74.7985C65.8044 74.7285 63.2644 72.3485 63.1944 68.9985C63.1344 65.7185 65.7244 62.9485 69.4344 62.8985C79.7544 62.7785 90.0744 62.7685 100.404 62.8985C104.274 62.9485 106.594 65.4585 106.574 68.9585C106.544 72.4385 104.174 74.7285 100.254 74.7985C95.0344 74.8885 89.8044 74.8185 84.5844 74.8185H84.5744Z" fill="#36A852"/>
<path d="M84.9844 59.9086C79.8844 59.9086 74.7844 59.9786 69.6944 59.8886C65.8244 59.8186 63.2944 57.4786 63.1944 54.1386C63.1044 50.8686 65.6644 48.0586 69.3944 48.0086C79.7144 47.8686 90.0344 47.8686 100.354 47.9986C104.244 48.0486 106.574 50.5486 106.564 54.0186C106.564 57.5086 104.204 59.8086 100.284 59.8886C95.1844 59.9886 90.0844 59.9086 84.9944 59.9186L84.9844 59.9086Z" fill="#36A852"/>
<path fill-rule="evenodd" clip-rule="evenodd" d="M311.234 156.241C315.014 147.721 316.824 138.721 316.704 129.371H316.695C316.635 89.0507 282.465 58.1607 242.005 61.8407C203.785 65.3107 175.545 101.321 181.365 139.141C188.205 183.571 233.785 209.371 275.155 192.111C277.835 191.001 279.155 191.341 280.965 193.521C289.234 203.476 297.58 213.368 305.927 223.26C309.956 228.034 313.984 232.809 318.005 237.591C321.935 242.271 326.675 245.761 332.425 247.871C347.925 253.561 363.915 246.371 367.845 231.511C371.365 218.191 366.785 207.241 356.545 198.521C341.935 186.081 327.245 173.741 312.505 161.451C310.595 159.851 310.155 158.681 311.234 156.241ZM344.275 240.49C353.655 242.14 361.025 236.12 361.105 225.66V225.65C360.965 220.73 358.725 215.57 354.125 211.66C346.574 205.232 338.998 198.837 331.421 192.44C324.155 186.307 316.889 180.172 309.645 174.01C308.074 172.68 307.355 173.01 306.225 174.51C303.065 178.71 299.414 182.48 295.175 185.58C293.275 186.96 293.234 187.8 294.715 189.54C305.54 202.272 316.303 215.06 327.066 227.846C328.492 229.541 329.918 231.235 331.345 232.93C334.764 237 339.034 239.57 344.275 240.49Z" fill="#36A852"/>
<path d="M324.89 6H25.15C14.5737 6 6 14.5737 6 25.15V201.32C6 211.896 14.5737 220.47 25.15 220.47H324.89C335.466 220.47 344.04 211.896 344.04 201.32V25.15C344.04 14.5737 335.466 6 324.89 6Z" stroke="#33A850" stroke-width="11" stroke-miterlimit="10"/>
<path d="M112.72 223.531V256.721" stroke="#33A850" stroke-width="11" stroke-miterlimit="10"/>
<path d="M79.02 256.719H265.91C281.97 256.719 295.02 269.759 295.02 285.829V302.679H49.91V285.829C49.91 269.769 62.95 256.719 79.02 256.719Z" stroke="#33A850" stroke-width="8" stroke-miterlimit="10"/>
<path d="M229.66 220.469V253.659" stroke="#33A850" stroke-width="11" stroke-miterlimit="10"/>
<path d="M298.654 130.629C298.654 158.243 276.269 180.629 248.654 180.629C221.04 180.629 198.654 158.243 198.654 130.629C198.654 103.015 221.04 80.6289 248.654 80.6289C276.269 80.6289 298.654 103.015 298.654 130.629ZM210.906 130.629C210.906 151.477 227.807 168.377 248.654 168.377C269.502 168.377 286.403 151.477 286.403 130.629C286.403 109.781 269.502 92.8808 248.654 92.8808C227.807 92.8808 210.906 109.781 210.906 130.629Z" fill="white"/>
<path d="M249.185 104.629C251.662 105.021 253.697 106.172 253.847 108.841C253.955 110.767 254.856 111.468 256.382 112.169C258.784 113.27 260.694 115.029 261.995 117.381C263.555 120.209 263.063 123.011 260.744 124.546C258.384 126.105 255.69 125.488 253.713 122.936C252.02 120.743 248.968 119.842 246.557 120.893C245.698 121.268 244.764 121.777 244.722 122.828C244.681 123.995 245.682 124.296 246.616 124.512C249.135 125.105 251.687 125.597 254.172 126.306C259.91 127.949 262.888 131.193 263.305 136.022C263.78 141.535 261.453 145.689 256.191 148.341C254.773 149.058 253.997 149.759 253.855 151.51C253.647 154.113 251.87 155.564 249.251 155.681C246.607 155.797 244.614 154.421 244.347 151.886C244.105 149.567 242.821 148.8 241.111 147.949C239.426 147.115 238.025 145.864 236.924 144.296C235.173 141.802 235.306 139.083 237.299 137.273C239.41 135.347 242.254 135.48 244.481 137.857C246.516 140.042 248.784 140.584 251.495 139.525C252.504 139.133 253.438 138.566 253.296 137.307C253.163 136.131 252.045 136.006 251.186 135.789C248.676 135.147 246.099 134.755 243.63 133.996C237.842 132.227 234.989 129 234.681 123.762C234.355 118.391 237.083 114.654 241.628 112.21C243.079 111.426 244.022 110.801 244.214 108.908C244.489 106.189 246.482 104.862 249.168 104.629H249.185Z" fill="white"/>
</svg>
