<svg xmlns="http://www.w3.org/2000/svg" enable-background="new 0 0 52 52" viewBox="0 0 52 52" id="BankingManagement">
  <polygon points="14.688 40.191 6.639 40.191 7.727 21.622 13.59 21.622" fill="#539c53" class="color000000 svgShape"></polygon>
  <polygon points="15.883 16.126 15.883 18.583 14.738 19.658 6.586 19.658 5.442 18.583 5.442 16.126" fill="#539c53" class="color000000 svgShape"></polygon>
  <path d="M16.6684,43.09287v1.61766H4.64886v-1.61766c0.46081-0.36274,0.70591-0.5784,1.14703-0.94113h9.73528
		C15.9723,42.51447,16.2174,42.73013,16.6684,43.09287z" fill="#539c53" class="color000000 svgShape"></path>
  <polygon points="45.364 40.191 37.315 40.191 38.404 21.622 44.266 21.622" fill="#539c53" class="color000000 svgShape"></polygon>
  <polygon points="46.558 16.126 46.558 18.583 45.414 19.658 37.262 19.658 36.117 18.583 36.117 16.126" fill="#539c53" class="color000000 svgShape"></polygon>
  <path d="M47.34464 43.09287v1.61766H35.32516v-1.61766c.46075-.36274.70585-.5784 1.14704-.94113h9.73522C46.64861 42.51447 46.8937 42.73013 47.34464 43.09287zM48.54074 10.54405l-21.5783-9.29404c-.60783-.33336-1.3235-.33336-1.92158 0L3.46263 10.54405c-1.7353.97063-1.03927 3.61763.95095 3.61763h43.16641C49.57995 14.16168 50.27605 11.51469 48.54074 10.54405zM26.00169 11.22052c-1.67696 0-3.08824-1.36-3.08824-3.08818 0-1.69611 1.38238-3.07843 3.08824-3.07843 1.7384 0 3.07837 1.41417 3.07837 3.07843C29.08006 9.83821 27.69774 11.22052 26.00169 11.22052zM2.47075 50.50979v-2.14814c0-.9361.75886-1.69496 1.69496-1.69495l43.6686.00002c.9361 0 1.69496.75886 1.69496 1.69496v2.14814c0 .26961-.22059.49019-.4902.49019L2.96094 50.99998C2.6864 50.99998 2.47075 50.77451 2.47075 50.50979zM34.01143 29.15181c0-.03796 0 .19884 0-.76473l1.95095-1.68624c.36274-.31373.44119-.82355.20591-1.23529l-2.22549-3.85291c-.23528-.40199-.72548-.58827-1.16666-.43137l-2.43134.84312c-.21572-.13727-.43137-.26472-.66666-.38236l-.49019-2.54898c-.08826-.46081-.49019-.79411-.96082-.79411H23.7762c-.47057 0-.87256.3333-.96076.79411l-.50001 2.54898c-.21572.11764-.43137.2451-.64709.38236l-2.45096-.84312c-.44113-.15689-.93132.02938-1.16666.43137l-2.22543 3.85291c-.23528.41175-.14708.92156.20584 1.23529l1.97058 1.69605c-.01382.19334-.01338.57131 0 .7451l-1.96077 1.68624c-.36274.31373-.45094.83336-.21566 1.23529l2.22543 3.85291c.23534.4118.72554.58827 1.16666.44118l2.45096-.85293c.21572.14708.43137.27454.64709.38237l.50001 2.54898c.0882.46081.49019.79411.96076.79411h4.45093c.47062 0 .87256-.3333.96082-.79411l.49019-2.53917c.23528-.12746.45094-.25491.66666-.39218l2.43134.85293c.44118.15689.93138-.02938 1.16666-.44118l2.22549-3.85291c.23528-.40193.14702-.92156-.20591-1.23529L34.01143 29.15181zM26.00169 32.02434c-1.80394 0-3.25489-1.46077-3.25489-3.25489 0-1.80394 1.45095-3.25489 3.25489-3.25489 1.79406 0 3.25489 1.45095 3.25489 3.25489C29.25658 30.56357 27.79575 32.02434 26.00169 32.02434z" fill="#539c53" class="color000000 svgShape"></path>
</svg>
