<svg xmlns="http://www.w3.org/2000/svg" viewBox="0 0 64 64" id="GrowthChart">
  <path d="M16.21 30.26a.65.65 0 00.34-.1l22.2-12.88 2 3.23a.7.7 0 00.62.31h0a.67.67 0 00.59-.4l3.18-7a.66.66 0 000-.64.63.63 0 00-.53-.33l-8.12-.72a.69.69 0 00-.58.34.65.65 0 000 .72L38 16.11 15.85 29a.71.71 0 00-.24 1A.7.7 0 0016.21 30.26zM57.49 55.43H54V24.25a.49.49 0 00-.5-.49H45a.49.49 0 00-.49.49V55.43H41.54V31a.49.49 0 00-.49-.5H32.54a.5.5 0 00-.49.5V55.43H29.12V36.88a.5.5 0 00-.5-.49h-8.5a.51.51 0 00-.5.49V55.43H16.69V44.61a.49.49 0 00-.49-.49H7.69a.49.49 0 00-.49.49V55.43H3.68a.69.69 0 000 1.38H57.49a.69.69 0 000-1.38zM3.55 39.32l.55-.55a5.84 5.84 0 001.39.58v.76a.56.56 0 00.57.56H8a.56.56 0 00.57-.56v-.76A5.84 5.84 0 0010 38.77l.55.55a.58.58 0 00.79 0l1.4-1.41a.56.56 0 000-.79l-.53-.54a5.72 5.72 0 00.57-1.4h.77a.57.57 0 00.56-.56v-2a.57.57 0 00-.56-.56h-.77a5.52 5.52 0 00-.58-1.4l.54-.54a.56.56 0 000-.8L11.31 28a.57.57 0 00-.78 0L10 28.5a5.84 5.84 0 00-1.39-.58v-.76A.57.57 0 008 26.59h-2a.57.57 0 00-.57.57v.76a5.84 5.84 0 00-1.39.58L3.55 28a.57.57 0 00-.79 0l-1.4 1.4a.56.56 0 000 .79l.54.54a5.52 5.52 0 00-.58 1.4H.56a.57.57 0 00-.56.56v2a.57.57 0 00.56.56h.77a5.52 5.52 0 00.58 1.4l-.54.54a.57.57 0 000 .8l1.4 1.4A.57.57 0 003.55 39.32zm3.49-9a3.36 3.36 0 11-3.36 3.35A3.36 3.36 0 017 30.28zM57.49 7.19A6.51 6.51 0 1064 13.71 6.53 6.53 0 0057.49 7.19zm0 6h.1A1.9 1.9 0 0158 17v.3a.49.49 0 01-1 0V17a1.9 1.9 0 01-1.42-1.84.5.5 0 011 0 .92.92 0 10.92-.91h-.1A1.9 1.9 0 0157 10.46v-.3a.49.49 0 111 0v.3a1.89 1.89 0 011.41 1.84.49.49 0 01-1 0 .92.92 0 10-1.84 0A.92.92 0 0057.49 13.21z" fill="#539c53" class="color000000 svgShape"></path>
</svg>
