<svg xmlns="http://www.w3.org/2000/svg" viewBox="0 0 24 24" id="Legal">
  <g fill="#539c53" class="color000000 svgShape">
    <path d="M12.19,20.25a7.18,7.18,0,0,1-1.44-4.34V13a2.21,2.21,0,0,1,.66-1.59l1-1A2.27,2.27,0,0,1,14,9.75h3.75V4A1.76,1.76,0,0,0,16,2.25H4A1.76,1.76,0,0,0,2.25,4V20A1.76,1.76,0,0,0,4,21.75h9.72A6.81,6.81,0,0,1,12.19,20.25ZM10,11.75H6a.75.75,0,0,1,0-1.5h4a.75.75,0,0,1,0,1.5Zm4-3H6a.75.75,0,0,1,0-1.5h8a.75.75,0,0,1,0,1.5Zm0-3H6a.75.75,0,0,1,0-1.5h8a.75.75,0,0,1,0,1.5Z" fill="#539c53" class="color000000 svgShape"></path>
    <path d="M21.53,12.47l-1-1a.75.75,0,0,0-.53-.22H14a.75.75,0,0,0-.53.22l-1,1a.75.75,0,0,0-.22.53v2.91a4.58,4.58,0,0,0,0,.53,5.34,5.34,0,0,0,.28,1.33,3.8,3.8,0,0,0,.18.47c.08.18.17.35.26.52l0,0a4.8,4.8,0,0,0,.3.48c.11.14.21.28.33.41a4.08,4.08,0,0,0,.46.47,5.84,5.84,0,0,0,1.32.91l.79.4a1.77,1.77,0,0,0,.46.15h0a1.27,1.27,0,0,0,.28,0,1.75,1.75,0,0,0,.78-.18l.79-.4a5.72,5.72,0,0,0,3.18-5.14V13A.75.75,0,0,0,21.53,12.47ZM17,17.53a.75.75,0,0,1-1.06,0l-.48-.48L15,16.53a.75.75,0,0,1,0-1.06.84.84,0,0,1,.28-.18.76.76,0,0,1,.78.18l.47.47L18,14.47a.74.74,0,0,1,.53-.22.73.73,0,0,1,.25,0,.84.84,0,0,1,.28.18.75.75,0,0,1,0,1.06l-.28.28Z" fill="#539c53" class="color000000 svgShape"></path>
  </g>
</svg>
