<svg width="558" height="494" viewBox="0 0 558 494" fill="none" xmlns="http://www.w3.org/2000/svg">
<path d="M266.574 317.069C270.111 320.18 274.527 321.739 278.947 321.739C283.367 321.739 287.785 320.18 291.32 317.069C295.8 313.122 401.004 219.351 401.004 122.102C401.004 54.7749 346.251 0 278.949 0C211.645 0 156.891 54.7749 156.891 122.102C156.887 219.351 262.094 313.122 266.574 317.069ZM278.947 90.1983C296.42 90.1983 310.589 104.478 310.589 122.102C310.589 139.723 296.42 154.005 278.947 154.005C261.468 154.005 247.301 139.721 247.301 122.102C247.301 104.478 261.468 90.1983 278.947 90.1983Z" fill="white"/>
<path d="M513.48 317.015L499.341 267.467C497.046 259.426 489.699 253.883 481.34 253.883H380.433C376.785 259.306 372.936 264.749 368.866 270.223C340.582 308.224 311.829 333.928 308.642 336.738C300.433 343.966 289.889 347.947 278.947 347.947C268.013 347.947 257.469 343.97 249.249 336.734C246.065 333.928 217.309 308.22 189.027 270.223C184.956 264.749 181.108 259.304 177.46 253.883H76.5506C68.1916 253.883 60.8451 259.426 58.5496 267.467L41.6982 326.518L418.377 395.512L513.48 317.015Z" fill="white"/>
<path d="M557.172 470.14L521.05 343.542L341.825 494H539.173C545.047 494 550.579 491.244 554.116 486.556C557.653 481.865 558.782 475.787 557.172 470.14Z" fill="white"/>
<path d="M91.6529 362.313L34.4736 351.839L0.718249 470.14C-0.891563 475.787 0.237372 481.865 3.77633 486.554C7.31341 491.242 12.8454 493.998 18.7192 493.998H91.6529V362.313Z" fill="white"/>
<path d="M117.862 367.116V493.998H301.06L392.321 417.386L117.862 367.116Z" fill="white"/>
</svg>
