<svg width="74" height="65" viewBox="0 0 74 65" fill="none" xmlns="http://www.w3.org/2000/svg">
<path d="M35.0025 41.6327C35.4669 42.0411 36.0468 42.2458 36.6272 42.2458C37.2075 42.2458 37.7876 42.0411 38.2518 41.6327C38.8401 41.1144 52.6537 28.8019 52.6537 16.0325C52.6537 7.1922 45.4645 0 36.6274 0C27.7901 0 20.6006 7.1922 20.6006 16.0325C20.6001 28.8019 34.4143 41.1144 35.0025 41.6327ZM36.6272 11.8435C38.9215 11.8435 40.7819 13.7185 40.7819 16.0325C40.7819 18.3463 38.9215 20.2215 36.6272 20.2215C34.3321 20.2215 32.4719 18.346 32.4719 16.0325C32.4719 13.7185 34.3321 11.8435 36.6272 11.8435Z" fill="url(#paint0_linear_1026_2633)"/>
<path d="M67.4228 41.6255L65.5663 35.1197C65.2648 34.0638 64.3002 33.3359 63.2026 33.3359H49.9531C49.4741 34.048 48.9687 34.7628 48.4342 35.4815C44.7205 40.4712 40.945 43.8463 40.5265 44.2153C39.4486 45.1643 38.0642 45.687 36.6275 45.687C35.1918 45.687 33.8073 45.1648 32.728 44.2148C32.31 43.8463 28.534 40.4707 24.8205 35.4815C24.2861 34.7628 23.7807 34.0478 23.3017 33.3359H10.0519C8.95428 33.3359 7.98965 34.0638 7.68825 35.1197L5.47559 42.8733L54.9353 51.9326L67.4228 41.6255Z" fill="url(#paint1_linear_1026_2633)"/>
<path d="M73.1598 61.7316L68.4168 45.1086L44.8838 64.8645H70.7964C71.5677 64.8645 72.2941 64.5027 72.7585 63.8871C73.2229 63.2712 73.3712 62.473 73.1598 61.7316Z" fill="url(#paint2_linear_1026_2633)"/>
<path d="M12.0345 47.5734L4.52654 46.1981L0.0943094 61.7317C-0.117066 62.4731 0.031168 63.2712 0.495849 63.8868C0.960284 64.5025 1.68666 64.8643 2.45792 64.8643H12.0345V47.5734Z" fill="url(#paint3_linear_1026_2633)"/>
<path d="M15.4756 48.204V64.8642H39.5303L51.5133 54.8047L15.4756 48.204Z" fill="url(#paint4_linear_1026_2633)"/>
<defs>
<linearGradient id="paint0_linear_1026_2633" x1="36.6272" y1="0" x2="36.6272" y2="42.2458" gradientUnits="userSpaceOnUse">
<stop stop-color="#2DB92D"/>
<stop offset="1" stop-color="#196719"/>
</linearGradient>
<linearGradient id="paint1_linear_1026_2633" x1="36.4492" y1="33.3359" x2="36.4492" y2="51.9326" gradientUnits="userSpaceOnUse">
<stop stop-color="#2DB92D"/>
<stop offset="1" stop-color="#196719"/>
</linearGradient>
<linearGradient id="paint2_linear_1026_2633" x1="59.069" y1="45.1086" x2="59.069" y2="64.8645" gradientUnits="userSpaceOnUse">
<stop stop-color="#2DB92D"/>
<stop offset="1" stop-color="#196719"/>
</linearGradient>
<linearGradient id="paint3_linear_1026_2633" x1="6.01723" y1="46.1981" x2="6.01723" y2="64.8643" gradientUnits="userSpaceOnUse">
<stop stop-color="#2DB92D"/>
<stop offset="1" stop-color="#196719"/>
</linearGradient>
<linearGradient id="paint4_linear_1026_2633" x1="33.4944" y1="48.204" x2="33.4944" y2="64.8642" gradientUnits="userSpaceOnUse">
<stop stop-color="#2DB92D"/>
<stop offset="1" stop-color="#196719"/>
</linearGradient>
</defs>
</svg>
